<svg xmlns="http://www.w3.org/2000/svg" xmlns:xlink="http://www.w3.org/1999/xlink" width="500" zoomAndPan="magnify" viewBox="0 0 375 374.999991" height="500" preserveAspectRatio="xMidYMid meet" version="1.0"><defs><g/><clipPath id="b84d4ca76e"><path d="M 48 115 L 327 115 L 327 219 L 48 219 Z M 48 115 " clip-rule="nonzero"/></clipPath><clipPath id="f69871d7ad"><path d="M 48.074219 141.871094 L 319 115.03125 L 326.613281 191.902344 L 55.691406 218.742188 Z M 48.074219 141.871094 " clip-rule="nonzero"/></clipPath><clipPath id="0751f0419b"><path d="M 25 41 L 43 41 L 43 66 L 25 66 Z M 25 41 " clip-rule="nonzero"/></clipPath><clipPath id="ea057487a3"><path d="M 0.0742188 26.871094 L 271 0.03125 L 278.613281 76.902344 L 7.691406 103.742188 Z M 0.0742188 26.871094 " clip-rule="nonzero"/></clipPath><clipPath id="86415678f6"><path d="M 271.324219 -0.00390625 L 0.402344 26.839844 L 8.019531 103.710938 L 278.941406 76.871094 Z M 271.324219 -0.00390625 " clip-rule="nonzero"/></clipPath><clipPath id="580c3578d3"><path d="M 271.324219 -0.00390625 L 0.402344 26.839844 L 8.019531 103.710938 L 278.941406 76.871094 Z M 271.324219 -0.00390625 " clip-rule="nonzero"/></clipPath><clipPath id="fe573a5d0e"><path d="M 2 24 L 85 24 L 85 64 L 2 64 Z M 2 24 " clip-rule="nonzero"/></clipPath><clipPath id="e2776f344b"><path d="M 0.0742188 26.871094 L 271 0.03125 L 278.613281 76.902344 L 7.691406 103.742188 Z M 0.0742188 26.871094 " clip-rule="nonzero"/></clipPath><clipPath id="14a386a010"><path d="M 271.324219 -0.00390625 L 0.402344 26.839844 L 8.019531 103.710938 L 278.941406 76.871094 Z M 271.324219 -0.00390625 " clip-rule="nonzero"/></clipPath><clipPath id="0759626ee5"><path d="M 271.324219 -0.00390625 L 0.402344 26.839844 L 8.019531 103.710938 L 278.941406 76.871094 Z M 271.324219 -0.00390625 " clip-rule="nonzero"/></clipPath><clipPath id="dc646fe21a"><path d="M 0 22 L 278 22 L 278 92 L 0 92 Z M 0 22 " clip-rule="nonzero"/></clipPath><clipPath id="4ae7a1ea85"><path d="M 0.0742188 26.871094 L 271 0.03125 L 278.613281 76.902344 L 7.691406 103.742188 Z M 0.0742188 26.871094 " clip-rule="nonzero"/></clipPath><clipPath id="9e190df96c"><path d="M 271.324219 -0.00390625 L 0.402344 26.839844 L 8.019531 103.710938 L 278.941406 76.871094 Z M 271.324219 -0.00390625 " clip-rule="nonzero"/></clipPath><clipPath id="bfe1698ffb"><path d="M 271.324219 -0.00390625 L 0.402344 26.839844 L 8.019531 103.710938 L 278.941406 76.871094 Z M 271.324219 -0.00390625 " clip-rule="nonzero"/></clipPath><clipPath id="8654584452"><path d="M 209 50 L 223 50 L 223 72 L 209 72 Z M 209 50 " clip-rule="nonzero"/></clipPath><clipPath id="5fcb8f9eec"><path d="M 0.0742188 26.871094 L 271 0.03125 L 278.613281 76.902344 L 7.691406 103.742188 Z M 0.0742188 26.871094 " clip-rule="nonzero"/></clipPath><clipPath id="bd38e5069e"><path d="M 271.324219 -0.00390625 L 0.402344 26.839844 L 8.019531 103.710938 L 278.941406 76.871094 Z M 271.324219 -0.00390625 " clip-rule="nonzero"/></clipPath><clipPath id="904f69f422"><path d="M 271.324219 -0.00390625 L 0.402344 26.839844 L 8.019531 103.710938 L 278.941406 76.871094 Z M 271.324219 -0.00390625 " clip-rule="nonzero"/></clipPath><clipPath id="b4fd38795f"><path d="M 174 72 L 202 72 L 202 80 L 174 80 Z M 174 72 " clip-rule="nonzero"/></clipPath><clipPath id="7bbaeaac87"><path d="M 0.0742188 26.871094 L 271 0.03125 L 278.613281 76.902344 L 7.691406 103.742188 Z M 0.0742188 26.871094 " clip-rule="nonzero"/></clipPath><clipPath id="6d5cd7c1cc"><path d="M 271.324219 -0.00390625 L 0.402344 26.839844 L 8.019531 103.710938 L 278.941406 76.871094 Z M 271.324219 -0.00390625 " clip-rule="nonzero"/></clipPath><clipPath id="f25108584c"><path d="M 271.324219 -0.00390625 L 0.402344 26.839844 L 8.019531 103.710938 L 278.941406 76.871094 Z M 271.324219 -0.00390625 " clip-rule="nonzero"/></clipPath><clipPath id="760bc8cff2"><path d="M 79 78 L 88 78 L 88 82 L 79 82 Z M 79 78 " clip-rule="nonzero"/></clipPath><clipPath id="7562abeed2"><path d="M 0.0742188 26.871094 L 271 0.03125 L 278.613281 76.902344 L 7.691406 103.742188 Z M 0.0742188 26.871094 " clip-rule="nonzero"/></clipPath><clipPath id="97e5bdee01"><path d="M 271.324219 -0.00390625 L 0.402344 26.839844 L 8.019531 103.710938 L 278.941406 76.871094 Z M 271.324219 -0.00390625 " clip-rule="nonzero"/></clipPath><clipPath id="5a36e6f6b5"><path d="M 271.324219 -0.00390625 L 0.402344 26.839844 L 8.019531 103.710938 L 278.941406 76.871094 Z M 271.324219 -0.00390625 " clip-rule="nonzero"/></clipPath><clipPath id="5a32611fce"><path d="M 119 83 L 153 83 L 153 88 L 119 88 Z M 119 83 " clip-rule="nonzero"/></clipPath><clipPath id="fcc01fd1ef"><path d="M 0.0742188 26.871094 L 271 0.03125 L 278.613281 76.902344 L 7.691406 103.742188 Z M 0.0742188 26.871094 " clip-rule="nonzero"/></clipPath><clipPath id="112e139a3b"><path d="M 271.324219 -0.00390625 L 0.402344 26.839844 L 8.019531 103.710938 L 278.941406 76.871094 Z M 271.324219 -0.00390625 " clip-rule="nonzero"/></clipPath><clipPath id="e6abd0d3ad"><path d="M 271.324219 -0.00390625 L 0.402344 26.839844 L 8.019531 103.710938 L 278.941406 76.871094 Z M 271.324219 -0.00390625 " clip-rule="nonzero"/></clipPath><clipPath id="8ebfbf1451"><path d="M 33 43 L 276 43 L 276 85 L 33 85 Z M 33 43 " clip-rule="nonzero"/></clipPath><clipPath id="fdb1d7dcfa"><path d="M 0.0742188 26.871094 L 271 0.03125 L 278.613281 76.902344 L 7.691406 103.742188 Z M 0.0742188 26.871094 " clip-rule="nonzero"/></clipPath><clipPath id="e18a840f4f"><path d="M 271.324219 -0.00390625 L 0.402344 26.839844 L 8.019531 103.710938 L 278.941406 76.871094 Z M 271.324219 -0.00390625 " clip-rule="nonzero"/></clipPath><clipPath id="eb4c565716"><path d="M 271.324219 -0.00390625 L 0.402344 26.839844 L 8.019531 103.710938 L 278.941406 76.871094 Z M 271.324219 -0.00390625 " clip-rule="nonzero"/></clipPath><clipPath id="e78b1b8952"><path d="M 57 60 L 102 60 L 102 74 L 57 74 Z M 57 60 " clip-rule="nonzero"/></clipPath><clipPath id="d23d95c298"><path d="M 0.0742188 26.871094 L 271 0.03125 L 278.613281 76.902344 L 7.691406 103.742188 Z M 0.0742188 26.871094 " clip-rule="nonzero"/></clipPath><clipPath id="ba9647e6fd"><path d="M 271.324219 -0.00390625 L 0.402344 26.839844 L 8.019531 103.710938 L 278.941406 76.871094 Z M 271.324219 -0.00390625 " clip-rule="nonzero"/></clipPath><clipPath id="36515d75d1"><path d="M 271.324219 -0.00390625 L 0.402344 26.839844 L 8.019531 103.710938 L 278.941406 76.871094 Z M 271.324219 -0.00390625 " clip-rule="nonzero"/></clipPath><clipPath id="81b0f977b0"><path d="M 228 47 L 241 47 L 241 56 L 228 56 Z M 228 47 " clip-rule="nonzero"/></clipPath><clipPath id="df3131da8d"><path d="M 0.0742188 26.871094 L 271 0.03125 L 278.613281 76.902344 L 7.691406 103.742188 Z M 0.0742188 26.871094 " clip-rule="nonzero"/></clipPath><clipPath id="10e8d757e0"><path d="M 271.324219 -0.00390625 L 0.402344 26.839844 L 8.019531 103.710938 L 278.941406 76.871094 Z M 271.324219 -0.00390625 " clip-rule="nonzero"/></clipPath><clipPath id="5cdfdaf86a"><path d="M 271.324219 -0.00390625 L 0.402344 26.839844 L 8.019531 103.710938 L 278.941406 76.871094 Z M 271.324219 -0.00390625 " clip-rule="nonzero"/></clipPath><clipPath id="d368c696bf"><path d="M 83 69 L 176 69 L 176 88 L 83 88 Z M 83 69 " clip-rule="nonzero"/></clipPath><clipPath id="d336f0528c"><path d="M 0.0742188 26.871094 L 271 0.03125 L 278.613281 76.902344 L 7.691406 103.742188 Z M 0.0742188 26.871094 " clip-rule="nonzero"/></clipPath><clipPath id="6f6662b719"><path d="M 271.324219 -0.00390625 L 0.402344 26.839844 L 8.019531 103.710938 L 278.941406 76.871094 Z M 271.324219 -0.00390625 " clip-rule="nonzero"/></clipPath><clipPath id="b842c368b5"><path d="M 271.324219 -0.00390625 L 0.402344 26.839844 L 8.019531 103.710938 L 278.941406 76.871094 Z M 271.324219 -0.00390625 " clip-rule="nonzero"/></clipPath><clipPath id="e6c6fd61e6"><path d="M 197 56 L 203 56 L 203 63 L 197 63 Z M 197 56 " clip-rule="nonzero"/></clipPath><clipPath id="a52eadc21b"><path d="M 0.0742188 26.871094 L 271 0.03125 L 278.613281 76.902344 L 7.691406 103.742188 Z M 0.0742188 26.871094 " clip-rule="nonzero"/></clipPath><clipPath id="9bbcdebfc7"><path d="M 271.324219 -0.00390625 L 0.402344 26.839844 L 8.019531 103.710938 L 278.941406 76.871094 Z M 271.324219 -0.00390625 " clip-rule="nonzero"/></clipPath><clipPath id="eeac112f57"><path d="M 271.324219 -0.00390625 L 0.402344 26.839844 L 8.019531 103.710938 L 278.941406 76.871094 Z M 271.324219 -0.00390625 " clip-rule="nonzero"/></clipPath><clipPath id="47485dab20"><path d="M 187 57 L 193 57 L 193 64 L 187 64 Z M 187 57 " clip-rule="nonzero"/></clipPath><clipPath id="784714bcc1"><path d="M 0.0742188 26.871094 L 271 0.03125 L 278.613281 76.902344 L 7.691406 103.742188 Z M 0.0742188 26.871094 " clip-rule="nonzero"/></clipPath><clipPath id="13d4666866"><path d="M 271.324219 -0.00390625 L 0.402344 26.839844 L 8.019531 103.710938 L 278.941406 76.871094 Z M 271.324219 -0.00390625 " clip-rule="nonzero"/></clipPath><clipPath id="70fee68e03"><path d="M 271.324219 -0.00390625 L 0.402344 26.839844 L 8.019531 103.710938 L 278.941406 76.871094 Z M 271.324219 -0.00390625 " clip-rule="nonzero"/></clipPath><clipPath id="4a8994c80b"><path d="M 177 58 L 183 58 L 183 65 L 177 65 Z M 177 58 " clip-rule="nonzero"/></clipPath><clipPath id="2469a3bc2d"><path d="M 0.0742188 26.871094 L 271 0.03125 L 278.613281 76.902344 L 7.691406 103.742188 Z M 0.0742188 26.871094 " clip-rule="nonzero"/></clipPath><clipPath id="87ea9b9c78"><path d="M 271.324219 -0.00390625 L 0.402344 26.839844 L 8.019531 103.710938 L 278.941406 76.871094 Z M 271.324219 -0.00390625 " clip-rule="nonzero"/></clipPath><clipPath id="6b831f52b2"><path d="M 271.324219 -0.00390625 L 0.402344 26.839844 L 8.019531 103.710938 L 278.941406 76.871094 Z M 271.324219 -0.00390625 " clip-rule="nonzero"/></clipPath><clipPath id="b0f6ab12c3"><path d="M 167 59 L 173 59 L 173 66 L 167 66 Z M 167 59 " clip-rule="nonzero"/></clipPath><clipPath id="121f867b6b"><path d="M 0.0742188 26.871094 L 271 0.03125 L 278.613281 76.902344 L 7.691406 103.742188 Z M 0.0742188 26.871094 " clip-rule="nonzero"/></clipPath><clipPath id="9367993488"><path d="M 271.324219 -0.00390625 L 0.402344 26.839844 L 8.019531 103.710938 L 278.941406 76.871094 Z M 271.324219 -0.00390625 " clip-rule="nonzero"/></clipPath><clipPath id="efb3c958ff"><path d="M 271.324219 -0.00390625 L 0.402344 26.839844 L 8.019531 103.710938 L 278.941406 76.871094 Z M 271.324219 -0.00390625 " clip-rule="nonzero"/></clipPath><clipPath id="3c3e3879af"><path d="M 158 60 L 163 60 L 163 67 L 158 67 Z M 158 60 " clip-rule="nonzero"/></clipPath><clipPath id="e5cecdbf75"><path d="M 0.0742188 26.871094 L 271 0.03125 L 278.613281 76.902344 L 7.691406 103.742188 Z M 0.0742188 26.871094 " clip-rule="nonzero"/></clipPath><clipPath id="de400b5c27"><path d="M 271.324219 -0.00390625 L 0.402344 26.839844 L 8.019531 103.710938 L 278.941406 76.871094 Z M 271.324219 -0.00390625 " clip-rule="nonzero"/></clipPath><clipPath id="6b6fafaef6"><path d="M 271.324219 -0.00390625 L 0.402344 26.839844 L 8.019531 103.710938 L 278.941406 76.871094 Z M 271.324219 -0.00390625 " clip-rule="nonzero"/></clipPath><clipPath id="86a93b04f0"><path d="M 148 61 L 154 61 L 154 68 L 148 68 Z M 148 61 " clip-rule="nonzero"/></clipPath><clipPath id="064fea5831"><path d="M 0.0742188 26.871094 L 271 0.03125 L 278.613281 76.902344 L 7.691406 103.742188 Z M 0.0742188 26.871094 " clip-rule="nonzero"/></clipPath><clipPath id="35b4bc1dfb"><path d="M 271.324219 -0.00390625 L 0.402344 26.839844 L 8.019531 103.710938 L 278.941406 76.871094 Z M 271.324219 -0.00390625 " clip-rule="nonzero"/></clipPath><clipPath id="98598b682c"><path d="M 271.324219 -0.00390625 L 0.402344 26.839844 L 8.019531 103.710938 L 278.941406 76.871094 Z M 271.324219 -0.00390625 " clip-rule="nonzero"/></clipPath><clipPath id="dc9acd83c8"><path d="M 138 62 L 144 62 L 144 69 L 138 69 Z M 138 62 " clip-rule="nonzero"/></clipPath><clipPath id="c7943add6f"><path d="M 0.0742188 26.871094 L 271 0.03125 L 278.613281 76.902344 L 7.691406 103.742188 Z M 0.0742188 26.871094 " clip-rule="nonzero"/></clipPath><clipPath id="d8662d593a"><path d="M 271.324219 -0.00390625 L 0.402344 26.839844 L 8.019531 103.710938 L 278.941406 76.871094 Z M 271.324219 -0.00390625 " clip-rule="nonzero"/></clipPath><clipPath id="1c335a67bc"><path d="M 271.324219 -0.00390625 L 0.402344 26.839844 L 8.019531 103.710938 L 278.941406 76.871094 Z M 271.324219 -0.00390625 " clip-rule="nonzero"/></clipPath><clipPath id="64f55a5043"><path d="M 128 63 L 134 63 L 134 70 L 128 70 Z M 128 63 " clip-rule="nonzero"/></clipPath><clipPath id="1f10da2995"><path d="M 0.0742188 26.871094 L 271 0.03125 L 278.613281 76.902344 L 7.691406 103.742188 Z M 0.0742188 26.871094 " clip-rule="nonzero"/></clipPath><clipPath id="8274340b0d"><path d="M 271.324219 -0.00390625 L 0.402344 26.839844 L 8.019531 103.710938 L 278.941406 76.871094 Z M 271.324219 -0.00390625 " clip-rule="nonzero"/></clipPath><clipPath id="923a66d998"><path d="M 271.324219 -0.00390625 L 0.402344 26.839844 L 8.019531 103.710938 L 278.941406 76.871094 Z M 271.324219 -0.00390625 " clip-rule="nonzero"/></clipPath><clipPath id="fcdc334627"><path d="M 118 64 L 124 64 L 124 71 L 118 71 Z M 118 64 " clip-rule="nonzero"/></clipPath><clipPath id="320e6298b9"><path d="M 0.0742188 26.871094 L 271 0.03125 L 278.613281 76.902344 L 7.691406 103.742188 Z M 0.0742188 26.871094 " clip-rule="nonzero"/></clipPath><clipPath id="62bdfd9759"><path d="M 271.324219 -0.00390625 L 0.402344 26.839844 L 8.019531 103.710938 L 278.941406 76.871094 Z M 271.324219 -0.00390625 " clip-rule="nonzero"/></clipPath><clipPath id="fa235b8989"><path d="M 271.324219 -0.00390625 L 0.402344 26.839844 L 8.019531 103.710938 L 278.941406 76.871094 Z M 271.324219 -0.00390625 " clip-rule="nonzero"/></clipPath><clipPath id="5d43f5f824"><path d="M 109 65 L 114 65 L 114 72 L 109 72 Z M 109 65 " clip-rule="nonzero"/></clipPath><clipPath id="b4bfdeb49b"><path d="M 0.0742188 26.871094 L 271 0.03125 L 278.613281 76.902344 L 7.691406 103.742188 Z M 0.0742188 26.871094 " clip-rule="nonzero"/></clipPath><clipPath id="2bde11a55e"><path d="M 271.324219 -0.00390625 L 0.402344 26.839844 L 8.019531 103.710938 L 278.941406 76.871094 Z M 271.324219 -0.00390625 " clip-rule="nonzero"/></clipPath><clipPath id="6868cdc38f"><path d="M 271.324219 -0.00390625 L 0.402344 26.839844 L 8.019531 103.710938 L 278.941406 76.871094 Z M 271.324219 -0.00390625 " clip-rule="nonzero"/></clipPath><clipPath id="7d5bffd50f"><path d="M 97 45 L 221 45 L 221 58 L 97 58 Z M 97 45 " clip-rule="nonzero"/></clipPath><clipPath id="03b395963c"><path d="M 0.0742188 26.871094 L 271 0.03125 L 278.613281 76.902344 L 7.691406 103.742188 Z M 0.0742188 26.871094 " clip-rule="nonzero"/></clipPath><clipPath id="9f62d5943d"><path d="M 271.324219 -0.00390625 L 0.402344 26.839844 L 8.019531 103.710938 L 278.941406 76.871094 Z M 271.324219 -0.00390625 " clip-rule="nonzero"/></clipPath><clipPath id="31da77012f"><path d="M 271.324219 -0.00390625 L 0.402344 26.839844 L 8.019531 103.710938 L 278.941406 76.871094 Z M 271.324219 -0.00390625 " clip-rule="nonzero"/></clipPath><clipPath id="e904f5da17"><path d="M 13 28 L 41 28 L 41 32 L 13 32 Z M 13 28 " clip-rule="nonzero"/></clipPath><clipPath id="7442d40412"><path d="M 0.0742188 26.871094 L 271 0.03125 L 278.613281 76.902344 L 7.691406 103.742188 Z M 0.0742188 26.871094 " clip-rule="nonzero"/></clipPath><clipPath id="ff6509f0b0"><path d="M 271.324219 -0.00390625 L 0.402344 26.839844 L 8.019531 103.710938 L 278.941406 76.871094 Z M 271.324219 -0.00390625 " clip-rule="nonzero"/></clipPath><clipPath id="b4e0936a75"><path d="M 271.324219 -0.00390625 L 0.402344 26.839844 L 8.019531 103.710938 L 278.941406 76.871094 Z M 271.324219 -0.00390625 " clip-rule="nonzero"/></clipPath><clipPath id="76dcd39883"><rect x="0" width="279" y="0" height="104"/></clipPath><clipPath id="df753dc878"><path d="M 175.054688 108.652344 L 280.804688 108.652344 L 280.804688 218.152344 L 175.054688 218.152344 Z M 175.054688 108.652344 " clip-rule="nonzero"/></clipPath><clipPath id="05051ac406"><path d="M 94.214844 278 L 178 278 L 178 280 L 94.214844 280 Z M 94.214844 278 " clip-rule="nonzero"/></clipPath><clipPath id="c5257cd249"><path d="M 197 277 L 280.964844 277 L 280.964844 279 L 197 279 Z M 197 277 " clip-rule="nonzero"/></clipPath><clipPath id="1dd1038bab"><path d="M 181 272.371094 L 194 272.371094 L 194 284.371094 L 181 284.371094 Z M 181 272.371094 " clip-rule="nonzero"/></clipPath><clipPath id="726a67696d"><rect x="0" width="147" y="0" height="46"/></clipPath></defs><g clip-path="url(#b84d4ca76e)"><g clip-path="url(#f69871d7ad)"><g transform="matrix(1, 0, 0, 1, 48, 115)"><g clip-path="url(#76dcd39883)"><g clip-path="url(#0751f0419b)"><g clip-path="url(#ea057487a3)"><g clip-path="url(#86415678f6)"><g clip-path="url(#580c3578d3)"><path fill="#67adf5" d="M 30.335938 41.359375 L 42.203125 63.578125 C 39.203125 64.238281 36.835938 64.789062 35.179688 65.1875 L 25.207031 46.042969 C 26.21875 45.136719 28.140625 43.402344 30.335938 41.359375 " fill-opacity="1" fill-rule="nonzero"/></g></g></g></g><g clip-path="url(#fe573a5d0e)"><g clip-path="url(#e2776f344b)"><g clip-path="url(#14a386a010)"><g clip-path="url(#0759626ee5)"><path fill="#ffffff" d="M 83.71875 53.789062 L 84.289062 56.011719 C 66.863281 58.527344 52.761719 61.296875 43.679688 63.257812 L 31.433594 40.328125 C 33.011719 38.847656 34.65625 37.261719 36.167969 35.746094 C 45.757812 34.867188 49.355469 33.316406 49.355469 33.316406 C 49.355469 33.316406 44.085938 33.839844 37.660156 34.222656 C 39.199219 32.609375 40.480469 31.164062 41.195312 30.117188 C 41.597656 29.820312 41.851562 29.410156 41.796875 28.832031 C 41.621094 27.082031 39.242188 26.949219 34.613281 27.316406 C 33.578125 27.398438 32.53125 27.496094 31.488281 27.597656 C 20.683594 28.667969 13.210938 30.5 13.140625 30.519531 L 5.257812 32.476562 C 3.078125 32.042969 2.90625 31.652344 2.828125 30.832031 C 2.667969 29.21875 36.855469 25.179688 42.160156 24.652344 C 46.660156 24.207031 62.40625 43.246094 69.113281 49.277344 C 72.765625 52.855469 75.9375 56.617188 75.9375 56.617188 C 75.9375 56.617188 75.066406 53.167969 74.011719 51.25 C 76.226562 51.378906 78.992188 51.46875 80.898438 51.523438 C 82.234375 51.5625 83.386719 52.488281 83.71875 53.789062 " fill-opacity="1" fill-rule="nonzero"/></g></g></g></g><g clip-path="url(#dc646fe21a)"><g clip-path="url(#4ae7a1ea85)"><g clip-path="url(#9e190df96c)"><g clip-path="url(#bfe1698ffb)"><path fill="#2d2d2d" d="M 3.71875 28.253906 C 4.679688 27.976562 6.011719 27.683594 7.800781 27.34375 C 10.777344 26.785156 14.945312 26.132812 20.175781 25.40625 C 29.660156 24.085938 39.472656 22.964844 41.96875 22.714844 C 45.449219 22.371094 50.789062 27.375 62.222656 39.484375 C 65.808594 43.289062 70.703125 48.46875 72.085938 49.160156 C 74.292969 49.363281 78.566406 49.507812 80.953125 49.574219 C 83.140625 49.640625 85.054688 51.171875 85.597656 53.304688 L 86.21875 55.734375 C 94.203125 54.609375 102.84375 53.546875 112.003906 52.636719 L 221.996094 41.742188 C 233.761719 40.574219 243.871094 46.015625 249.300781 48.9375 C 250.335938 49.492188 251.234375 49.976562 251.929688 50.300781 C 253.152344 50.875 255.941406 51.519531 258.894531 52.199219 C 267.300781 54.140625 276.828125 56.335938 277.363281 61.742188 C 278.027344 68.4375 264.613281 71.933594 222.15625 76.140625 C 202.066406 78.128906 184.371094 81.835938 168.761719 85.105469 C 156.246094 87.726562 144.429688 90.203125 133.691406 91.265625 C 125.996094 92.027344 113.171875 90.871094 99.214844 88.925781 L 96.753906 89.167969 C 95.917969 89.25 95.007812 89.027344 93.832031 88.144531 C 69.273438 84.460938 42.820312 78.851562 35.195312 77.195312 C 33.601562 76.851562 32.425781 75.523438 32.265625 73.894531 L 31.8125 69.335938 C 31.679688 67.96875 32.308594 66.671875 33.367188 65.90625 L 17.835938 36.089844 L 16.121094 35.882812 C 9.523438 35.09375 6.207031 34.699219 4.367188 34.277344 C 2.4375 33.839844 1.105469 33.117188 0.894531 31.023438 C 0.707031 29.113281 2.742188 28.53125 3.71875 28.253906 Z M 35.113281 67.207031 C 34.238281 67.417969 33.652344 68.246094 33.742188 69.144531 C 33.808594 70.246094 33.875 71.351562 33.957031 72.449219 L 34.019531 73.277344 C 34.042969 73.542969 34.035156 73.832031 34.125 74.125 C 34.289062 74.703125 34.734375 75.199219 35.3125 75.417969 C 35.613281 75.527344 35.863281 75.558594 36.132812 75.628906 L 36.9375 75.820312 L 38.542969 76.191406 L 41.761719 76.929688 C 46.050781 77.902344 50.355469 78.792969 54.667969 79.65625 C 58.988281 80.496094 63.308594 81.316406 67.644531 82.042969 L 74.15625 83.109375 C 76.332031 83.429688 78.507812 83.765625 80.6875 84.046875 C 78.535156 83.582031 76.375 83.167969 74.226562 82.714844 L 67.761719 81.417969 L 54.828125 78.84375 L 41.890625 76.304688 L 38.652344 75.683594 L 36.226562 75.203125 C 35.964844 75.148438 35.664062 75.101562 35.445312 75.035156 C 34.980469 74.890625 34.585938 74.507812 34.421875 74.03125 C 34.332031 73.800781 34.320312 73.527344 34.28125 73.25 L 34.261719 73.09375 C 42.050781 72.785156 49.566406 73.171875 56.460938 73.964844 L 55.875 68.027344 C 55.8125 67.417969 56.140625 66.835938 56.6875 66.566406 C 56.808594 66.507812 59.714844 65.128906 65.5625 64.550781 C 67.972656 64.3125 71.464844 63.320312 75.164062 62.273438 C 79.914062 60.921875 85.300781 59.394531 90.175781 58.910156 C 99.054688 58.03125 101.125 60.546875 101.546875 61.335938 C 101.640625 61.507812 101.699219 61.691406 101.71875 61.886719 L 102.863281 73.472656 C 102.882812 73.664062 102.867188 73.859375 102.808594 74.042969 C 102.632812 74.613281 101.898438 76.066406 98.839844 77.238281 C 100.558594 78.519531 102.34375 79.613281 104.058594 80.292969 C 122.308594 77.386719 147.558594 73.605469 166.023438 71.777344 C 182.898438 70.105469 195.542969 70.996094 203.179688 72.035156 C 204.207031 72.175781 205.167969 72.324219 206.070312 72.472656 C 207.523438 72.246094 208.957031 72.027344 210.386719 71.816406 C 210.371094 71.753906 208.484375 52.710938 208.484375 52.710938 C 208.34375 51.296875 209.375 50.035156 210.78125 49.894531 L 218.476562 49.132812 C 219.882812 48.992188 221.140625 50.027344 221.28125 51.441406 L 223.121094 70.015625 C 248.601562 66.566406 268.246094 64.625 274.3125 60.21875 C 274.589844 60.539062 274.808594 60.851562 274.960938 61.195312 C 275.085938 61.539062 275.1875 61.90625 275.148438 62.257812 C 275.128906 62.976562 274.632812 63.609375 274.058594 64.113281 C 272.875 65.117188 271.355469 65.746094 269.863281 66.308594 C 266.835938 67.394531 263.664062 68.113281 260.5 68.757812 C 254.152344 70.054688 247.71875 70.945312 241.292969 71.808594 C 238.074219 72.242188 234.855469 72.644531 231.632812 73.03125 L 221.964844 74.203125 C 225.203125 73.957031 228.433594 73.65625 231.667969 73.363281 C 234.898438 73.042969 238.128906 72.699219 241.355469 72.328125 C 247.804688 71.574219 254.246094 70.671875 260.632812 69.425781 C 263.816406 68.757812 266.996094 68.015625 270.074219 66.886719 C 270.460938 66.746094 270.84375 66.601562 271.222656 66.433594 C 271.601562 66.28125 271.972656 66.097656 272.34375 65.917969 C 273.078125 65.535156 273.808594 65.128906 274.445312 64.554688 C 274.765625 64.269531 275.0625 63.949219 275.300781 63.574219 C 275.421875 63.386719 275.503906 63.167969 275.597656 62.964844 L 275.671875 62.632812 C 275.703125 62.519531 275.722656 62.40625 275.714844 62.289062 C 275.75 61.824219 275.621094 61.386719 275.453125 60.976562 C 275.269531 60.570312 275.011719 60.214844 274.726562 59.898438 C 274.144531 59.265625 273.449219 58.792969 272.734375 58.378906 C 272.019531 57.964844 271.269531 57.621094 270.511719 57.308594 C 268.996094 56.691406 267.4375 56.203125 265.867188 55.773438 C 262.722656 54.929688 259.539062 54.28125 256.363281 53.609375 C 255.75 53.464844 255.167969 53.324219 254.621094 53.183594 L 242.050781 54.429688 L 236.476562 47.039062 L 240.183594 46.671875 C 235.148438 44.628906 228.976562 43.007812 222.1875 43.679688 C 208.84375 45.003906 157.542969 50.085938 112.195312 54.578125 C 72.527344 58.507812 42.113281 65.511719 35.113281 67.207031 Z M 211.335938 71.660156 C 215.039062 71.128906 218.652344 70.625 222.15625 70.144531 L 220.316406 51.539062 C 220.226562 50.660156 219.445312 50.015625 218.570312 50.101562 L 210.878906 50.863281 C 210.003906 50.949219 209.363281 51.734375 209.449219 52.613281 Z M 136.933594 86.296875 C 141.261719 85.535156 146.871094 84.597656 152.910156 83.605469 L 119.527344 86.914062 C 125.683594 87.324219 131.699219 87.21875 136.933594 86.296875 Z M 84.375 70.667969 L 87.667969 70.339844 C 87.667969 70.339844 98.691406 84.621094 107.535156 83.746094 C 116.378906 82.871094 148.621094 78.042969 148.621094 78.042969 C 148.621094 78.042969 134.695312 82.101562 119.511719 84.894531 C 132.921875 83.566406 148.847656 81.988281 157.695312 81.113281 C 174.222656 79.476562 175.4375 79.101562 175.140625 76.109375 C 174.996094 74.648438 171.464844 74.457031 166.121094 74.984375 C 160.777344 75.515625 116.761719 82.144531 108.1875 82.996094 C 99.613281 83.84375 88.179688 69.726562 88.179688 69.726562 L 83.453125 70.195312 C 83.453125 70.195312 92.066406 85.492188 95.886719 87.046875 C 94.039062 85.242188 89.410156 80.214844 84.375 70.667969 Z M 57.738281 72.09375 L 57.914062 73.890625 C 58.675781 73.871094 59.835938 73.832031 61.238281 73.769531 L 60.597656 67.3125 L 61.789062 67.054688 L 62.449219 73.707031 C 64.089844 73.617188 65.957031 73.496094 67.851562 73.320312 L 67.152344 66.253906 L 68.347656 66.054688 L 69.058594 73.214844 C 72.65625 72.941406 77.863281 73.394531 83.132812 73.617188 C 83.050781 73.476562 82.972656 73.339844 82.894531 73.210938 C 82.0625 73.164062 81.234375 73.121094 80.40625 73.066406 C 79.195312 72.960938 77.980469 72.875 76.773438 72.753906 C 74.347656 72.539062 71.945312 72.277344 69.496094 72.191406 C 71.90625 71.683594 74.382812 71.632812 76.820312 71.636719 C 78.042969 71.628906 79.261719 71.683594 80.476562 71.710938 L 82.054688 71.773438 C 81.855469 71.429688 81.734375 71.21875 81.714844 71.179688 L 80.207031 68.5 L 89.046875 67.621094 L 89.726562 68.460938 C 90.460938 69.367188 91.5625 70.613281 92.898438 71.980469 C 94.789062 71.90625 96.667969 71.714844 98.527344 71.191406 C 97.058594 72.03125 95.410156 72.515625 93.734375 72.816406 C 93.910156 72.984375 94.082031 73.15625 94.261719 73.328125 C 96.5 72.980469 98.058594 72.425781 99.144531 71.835938 L 98.085938 61.125 L 98.914062 61.5 L 99.890625 71.386719 C 100.457031 71 100.835938 70.625 101.089844 70.3125 L 100.269531 62.027344 C 100.269531 62.027344 98.921875 59.511719 90.320312 60.363281 C 81.722656 61.214844 71.371094 65.445312 65.707031 66.003906 C 60.050781 66.566406 57.320312 67.882812 57.320312 67.882812 Z M 87.9375 81.175781 C 87.660156 80.777344 87.378906 80.359375 87.085938 79.921875 C 86.851562 79.566406 86.617188 79.210938 86.390625 78.859375 C 84.105469 78.824219 81.785156 78.683594 79.539062 78.519531 C 81.035156 78.953125 82.417969 79.394531 83.679688 79.828125 C 84.945312 80.265625 86.382812 80.71875 87.9375 81.175781 Z M 177.128906 75.914062 C 177.308594 77.695312 176.875 78.96875 175.738281 79.878906 C 185.230469 78.324219 193.03125 77.011719 195.394531 76.46875 C 198.925781 75.65625 200.679688 74.523438 201.492188 73.800781 C 194.78125 72.972656 185.679688 72.441406 174.304688 73.085938 C 176.421875 73.675781 177.03125 74.898438 177.128906 75.914062 Z M 74.011719 51.25 C 75.066406 53.167969 75.9375 56.617188 75.9375 56.617188 C 75.9375 56.617188 72.765625 52.855469 69.113281 49.277344 C 62.40625 43.246094 46.660156 24.207031 42.160156 24.652344 C 36.855469 25.179688 2.667969 29.21875 2.828125 30.832031 C 2.90625 31.652344 3.078125 32.042969 5.257812 32.476562 L 13.140625 30.519531 C 13.210938 30.5 20.683594 28.667969 31.488281 27.597656 C 32.53125 27.496094 33.578125 27.398438 34.613281 27.316406 C 39.242188 26.949219 41.621094 27.082031 41.796875 28.832031 C 41.851562 29.410156 41.597656 29.820312 41.195312 30.117188 C 40.480469 31.164062 39.199219 32.609375 37.660156 34.222656 C 44.085938 33.839844 49.355469 33.316406 49.355469 33.316406 C 49.355469 33.316406 45.757812 34.867188 36.167969 35.746094 C 34.65625 37.261719 33.011719 38.847656 31.433594 40.328125 L 43.679688 63.257812 C 52.761719 61.296875 66.863281 58.527344 84.289062 56.011719 L 83.71875 53.789062 C 83.386719 52.488281 82.234375 51.5625 80.898438 51.523438 C 78.992188 51.46875 76.226562 51.378906 74.011719 51.25 Z M 40.648438 28.945312 C 40.582031 28.277344 38.351562 28.179688 34.707031 28.472656 C 33.644531 28.554688 32.609375 28.648438 31.605469 28.75 C 20.753906 29.824219 13.417969 31.644531 13.417969 31.644531 C 13.417969 31.644531 25.601562 31.253906 33.667969 30.453125 C 37.703125 30.054688 40.707031 29.554688 40.648438 28.945312 Z M 35.179688 65.1875 C 36.835938 64.789062 39.203125 64.238281 42.203125 63.578125 L 30.335938 41.359375 C 28.140625 43.402344 26.21875 45.136719 25.207031 46.042969 L 35.179688 65.1875 " fill-opacity="1" fill-rule="nonzero"/></g></g></g></g><g clip-path="url(#8654584452)"><g clip-path="url(#5fcb8f9eec)"><g clip-path="url(#bd38e5069e)"><g clip-path="url(#904f69f422)"><path fill="#ffffff" d="M 210.878906 50.863281 L 218.570312 50.101562 C 219.445312 50.015625 220.226562 50.660156 220.316406 51.539062 L 222.15625 70.144531 C 218.652344 70.625 215.039062 71.128906 211.339844 71.675781 C 211.335938 71.660156 209.449219 52.613281 209.449219 52.613281 C 209.363281 51.734375 210.003906 50.949219 210.878906 50.863281 " fill-opacity="1" fill-rule="nonzero"/></g></g></g></g><g clip-path="url(#b4fd38795f)"><g clip-path="url(#7bbaeaac87)"><g clip-path="url(#6d5cd7c1cc)"><g clip-path="url(#f25108584c)"><path fill="#67adf5" d="M 195.394531 76.46875 C 193.03125 77.011719 185.230469 78.324219 175.738281 79.878906 C 176.875 78.96875 177.308594 77.695312 177.128906 75.914062 C 177.03125 74.898438 176.421875 73.675781 174.304688 73.085938 C 185.679688 72.441406 194.78125 72.972656 201.492188 73.800781 C 200.679688 74.523438 198.925781 75.65625 195.394531 76.46875 " fill-opacity="1" fill-rule="nonzero"/></g></g></g></g><g clip-path="url(#760bc8cff2)"><g clip-path="url(#7562abeed2)"><g clip-path="url(#97e5bdee01)"><g clip-path="url(#5a36e6f6b5)"><path fill="#ffffff" d="M 86.390625 78.859375 C 86.617188 79.210938 86.851562 79.566406 87.085938 79.921875 C 87.378906 80.359375 87.660156 80.777344 87.9375 81.175781 C 86.382812 80.71875 84.945312 80.265625 83.679688 79.828125 C 82.417969 79.394531 81.035156 78.953125 79.539062 78.519531 C 81.785156 78.683594 84.105469 78.824219 86.390625 78.859375 " fill-opacity="1" fill-rule="nonzero"/></g></g></g></g><g clip-path="url(#5a32611fce)"><g clip-path="url(#fcc01fd1ef)"><g clip-path="url(#112e139a3b)"><g clip-path="url(#e6abd0d3ad)"><path fill="#67adf5" d="M 152.910156 83.605469 C 146.871094 84.597656 141.261719 85.535156 136.933594 86.296875 C 131.699219 87.21875 125.683594 87.324219 119.527344 86.914062 L 152.910156 83.605469 " fill-opacity="1" fill-rule="nonzero"/></g></g></g></g><g clip-path="url(#8ebfbf1451)"><g clip-path="url(#fdb1d7dcfa)"><g clip-path="url(#e18a840f4f)"><g clip-path="url(#eb4c565716)"><path fill="#ffffff" d="M 112.195312 54.578125 C 157.542969 50.085938 208.84375 45.003906 222.1875 43.679688 C 228.976562 43.007812 235.148438 44.628906 240.183594 46.671875 L 236.476562 47.039062 L 242.050781 54.429688 L 254.621094 53.183594 C 255.167969 53.324219 255.75 53.464844 256.363281 53.609375 C 259.539062 54.28125 262.722656 54.929688 265.867188 55.773438 C 267.4375 56.203125 268.996094 56.691406 270.511719 57.308594 C 271.269531 57.621094 272.019531 57.964844 272.734375 58.378906 C 273.449219 58.792969 274.144531 59.265625 274.726562 59.898438 C 275.011719 60.214844 275.269531 60.570312 275.453125 60.976562 C 275.621094 61.386719 275.75 61.824219 275.714844 62.289062 C 275.722656 62.40625 275.703125 62.519531 275.671875 62.632812 L 275.597656 62.964844 C 275.503906 63.167969 275.421875 63.386719 275.300781 63.574219 C 275.0625 63.949219 274.765625 64.269531 274.445312 64.554688 C 273.808594 65.128906 273.078125 65.535156 272.34375 65.917969 C 271.972656 66.097656 271.601562 66.28125 271.222656 66.433594 C 270.84375 66.601562 270.460938 66.746094 270.074219 66.886719 C 266.996094 68.015625 263.816406 68.757812 260.632812 69.425781 C 254.246094 70.671875 247.804688 71.574219 241.355469 72.328125 C 238.128906 72.699219 234.898438 73.042969 231.667969 73.363281 C 228.433594 73.65625 225.203125 73.957031 221.964844 74.203125 L 231.632812 73.03125 C 234.855469 72.644531 238.074219 72.242188 241.292969 71.808594 C 247.71875 70.945312 254.152344 70.054688 260.5 68.757812 C 263.664062 68.113281 266.835938 67.394531 269.863281 66.308594 C 271.355469 65.746094 272.875 65.117188 274.058594 64.113281 C 274.632812 63.609375 275.128906 62.976562 275.148438 62.257812 C 275.1875 61.90625 275.085938 61.539062 274.960938 61.195312 C 274.808594 60.851562 274.589844 60.539062 274.339844 60.246094 C 268.246094 64.625 248.601562 66.566406 223.121094 70.015625 L 221.28125 51.441406 C 221.140625 50.027344 219.882812 48.992188 218.476562 49.132812 L 210.78125 49.894531 C 209.375 50.035156 208.34375 51.296875 208.484375 52.710938 L 210.371094 71.753906 C 208.957031 72.027344 207.523438 72.246094 206.070312 72.472656 C 205.167969 72.324219 204.207031 72.175781 203.179688 72.035156 C 195.542969 70.996094 182.898438 70.105469 166.023438 71.777344 C 147.558594 73.605469 122.308594 77.386719 104.058594 80.292969 C 102.34375 79.613281 100.558594 78.519531 98.839844 77.238281 C 101.898438 76.066406 102.632812 74.613281 102.808594 74.042969 C 102.867188 73.859375 102.882812 73.664062 102.863281 73.472656 L 101.71875 61.886719 C 101.699219 61.691406 101.640625 61.507812 101.546875 61.335938 C 101.125 60.546875 99.054688 58.03125 90.175781 58.910156 C 85.300781 59.394531 79.914062 60.921875 75.164062 62.273438 C 71.464844 63.320312 67.972656 64.3125 65.5625 64.550781 C 59.714844 65.128906 56.808594 66.507812 56.6875 66.566406 C 56.140625 66.835938 55.8125 67.417969 55.875 68.027344 L 56.460938 73.964844 C 49.566406 73.171875 42.050781 72.785156 34.261719 73.09375 L 34.28125 73.25 C 34.320312 73.527344 34.332031 73.800781 34.421875 74.03125 C 34.585938 74.507812 34.980469 74.890625 35.445312 75.035156 C 35.664062 75.101562 35.964844 75.148438 36.226562 75.203125 L 38.652344 75.683594 L 41.890625 76.304688 L 54.828125 78.84375 L 67.761719 81.417969 L 74.226562 82.714844 C 76.375 83.167969 78.535156 83.582031 80.6875 84.046875 C 78.507812 83.765625 76.332031 83.429688 74.15625 83.109375 L 67.644531 82.042969 C 63.308594 81.316406 58.988281 80.496094 54.667969 79.65625 C 50.355469 78.792969 46.050781 77.902344 41.761719 76.929688 L 38.542969 76.191406 L 36.9375 75.820312 L 36.132812 75.628906 C 35.863281 75.558594 35.613281 75.527344 35.3125 75.417969 C 34.734375 75.199219 34.289062 74.703125 34.125 74.125 C 34.035156 73.832031 34.042969 73.542969 34.019531 73.277344 L 33.957031 72.449219 C 33.875 71.351562 33.808594 70.246094 33.742188 69.144531 C 33.652344 68.246094 34.238281 67.417969 35.113281 67.207031 C 42.113281 65.511719 72.527344 58.507812 112.195312 54.578125 Z M 228.378906 48.652344 L 230.257812 54.789062 C 230.386719 55.222656 230.851562 55.539062 231.289062 55.492188 L 240.351562 54.597656 L 234.78125 47.207031 L 228.933594 47.785156 C 228.492188 47.832031 228.246094 48.214844 228.378906 48.652344 Z M 200.101562 62.695312 C 201.421875 62.5625 202.359375 61.144531 202.199219 59.523438 C 202.039062 57.902344 200.839844 56.695312 199.519531 56.828125 C 198.203125 56.957031 197.261719 58.378906 197.421875 59.996094 C 197.582031 61.617188 198.78125 62.824219 200.101562 62.695312 Z M 190.296875 63.664062 C 191.613281 63.535156 192.554688 62.113281 192.394531 60.496094 C 192.234375 58.875 191.035156 57.667969 189.714844 57.796875 C 188.398438 57.929688 187.457031 59.347656 187.617188 60.96875 C 187.777344 62.589844 188.976562 63.796875 190.296875 63.664062 Z M 180.492188 64.636719 C 181.808594 64.507812 182.75 63.085938 182.589844 61.464844 C 182.429688 59.847656 181.230469 58.636719 179.910156 58.769531 C 178.59375 58.898438 177.652344 60.320312 177.8125 61.941406 C 177.972656 63.558594 179.171875 64.765625 180.492188 64.636719 Z M 170.683594 65.609375 C 172.003906 65.476562 172.945312 64.058594 172.785156 62.4375 C 172.625 60.816406 171.421875 59.609375 170.105469 59.742188 C 168.785156 59.871094 167.847656 61.292969 168.007812 62.910156 C 168.167969 64.53125 169.363281 65.738281 170.683594 65.609375 Z M 160.878906 66.578125 C 162.199219 66.449219 163.140625 65.03125 162.980469 63.410156 C 162.816406 61.789062 161.617188 60.582031 160.300781 60.710938 C 158.980469 60.84375 158.042969 62.261719 158.203125 63.882812 C 158.363281 65.503906 159.558594 66.710938 160.878906 66.578125 Z M 151.074219 67.550781 C 152.394531 67.421875 153.335938 66 153.175781 64.378906 C 153.011719 62.761719 151.8125 61.554688 150.496094 61.683594 C 149.175781 61.8125 148.234375 63.234375 148.394531 64.855469 C 148.554688 66.472656 149.757812 67.683594 151.074219 67.550781 Z M 141.269531 68.523438 C 142.589844 68.390625 143.527344 66.972656 143.367188 65.351562 C 143.207031 63.730469 142.007812 62.523438 140.6875 62.65625 C 139.367188 62.785156 138.429688 64.207031 138.589844 65.824219 C 138.75 67.445312 139.949219 68.652344 141.269531 68.523438 Z M 131.464844 69.496094 C 132.78125 69.363281 133.722656 67.945312 133.5625 66.324219 C 133.402344 64.703125 132.199219 63.496094 130.882812 63.625 C 129.5625 63.757812 128.625 65.175781 128.785156 66.796875 C 128.945312 68.417969 130.144531 69.625 131.464844 69.496094 Z M 121.660156 70.464844 C 122.976562 70.335938 123.917969 68.914062 123.757812 67.296875 C 123.597656 65.675781 122.394531 64.46875 121.078125 64.597656 C 119.757812 64.726562 118.820312 66.148438 118.980469 67.769531 C 119.140625 69.386719 120.339844 70.597656 121.660156 70.464844 Z M 111.851562 71.4375 C 113.171875 71.304688 114.113281 69.886719 113.953125 68.265625 C 113.792969 66.644531 112.589844 65.4375 111.269531 65.570312 C 109.949219 65.699219 109.011719 67.121094 109.171875 68.738281 C 109.332031 70.359375 110.53125 71.566406 111.851562 71.4375 Z M 113.023438 56.039062 L 128.347656 54.65625 C 138.558594 53.722656 148.765625 52.710938 158.976562 51.734375 C 169.183594 50.683594 179.386719 49.679688 189.589844 48.589844 L 204.882812 46.9375 C 209.980469 46.351562 215.078125 45.796875 220.171875 45.183594 C 215.058594 45.582031 209.949219 46.039062 204.835938 46.464844 L 189.515625 47.847656 C 179.296875 48.777344 169.09375 49.796875 158.882812 50.765625 C 148.679688 51.816406 138.46875 52.824219 128.273438 53.910156 L 112.976562 55.566406 C 107.878906 56.148438 102.777344 56.703125 97.6875 57.320312 C 102.800781 56.921875 107.910156 56.464844 113.023438 56.039062 " fill-opacity="1" fill-rule="nonzero"/></g></g></g></g><g clip-path="url(#e78b1b8952)"><g clip-path="url(#d23d95c298)"><g clip-path="url(#ba9647e6fd)"><g clip-path="url(#36515d75d1)"><path fill="#ffffff" d="M 90.320312 60.363281 C 98.921875 59.511719 100.269531 62.027344 100.269531 62.027344 L 101.089844 70.3125 C 100.835938 70.625 100.457031 71 99.890625 71.386719 L 98.914062 61.5 L 98.085938 61.125 L 99.144531 71.835938 C 98.058594 72.425781 96.5 72.980469 94.261719 73.328125 C 94.082031 73.15625 93.910156 72.984375 93.734375 72.816406 C 95.410156 72.515625 97.058594 72.03125 98.527344 71.191406 C 96.667969 71.714844 94.789062 71.90625 92.898438 71.980469 C 91.5625 70.613281 90.460938 69.367188 89.726562 68.460938 L 89.046875 67.621094 L 80.207031 68.5 L 81.714844 71.179688 C 81.734375 71.21875 81.855469 71.429688 82.054688 71.773438 L 80.476562 71.710938 C 79.261719 71.683594 78.042969 71.628906 76.820312 71.636719 C 74.382812 71.632812 71.90625 71.683594 69.496094 72.191406 C 71.945312 72.277344 74.347656 72.539062 76.773438 72.753906 C 77.980469 72.875 79.195312 72.960938 80.40625 73.066406 C 81.234375 73.121094 82.0625 73.164062 82.894531 73.210938 C 82.972656 73.339844 83.050781 73.476562 83.132812 73.617188 C 77.863281 73.394531 72.65625 72.941406 69.058594 73.214844 L 68.347656 66.054688 L 67.152344 66.253906 L 67.851562 73.320312 C 65.957031 73.496094 64.089844 73.617188 62.449219 73.707031 L 61.789062 67.054688 L 60.597656 67.3125 L 61.238281 73.769531 C 59.835938 73.832031 58.675781 73.871094 57.914062 73.890625 L 57.320312 67.882812 C 57.320312 67.882812 60.050781 66.566406 65.707031 66.003906 C 71.371094 65.445312 81.722656 61.214844 90.320312 60.363281 " fill-opacity="1" fill-rule="nonzero"/></g></g></g></g><g clip-path="url(#81b0f977b0)"><g clip-path="url(#df3131da8d)"><g clip-path="url(#10e8d757e0)"><g clip-path="url(#5cdfdaf86a)"><path fill="#2d2d2d" d="M 228.933594 47.785156 L 234.78125 47.207031 L 240.351562 54.597656 L 231.289062 55.492188 C 230.851562 55.539062 230.386719 55.222656 230.257812 54.789062 L 228.378906 48.652344 C 228.246094 48.214844 228.492188 47.832031 228.933594 47.785156 " fill-opacity="1" fill-rule="nonzero"/></g></g></g></g><g clip-path="url(#d368c696bf)"><g clip-path="url(#d336f0528c)"><g clip-path="url(#6f6662b719)"><g clip-path="url(#b842c368b5)"><path fill="#ffffff" d="M 83.453125 70.195312 L 88.179688 69.726562 C 88.179688 69.726562 99.613281 83.84375 108.1875 82.996094 C 116.761719 82.144531 160.777344 75.515625 166.121094 74.984375 C 171.464844 74.457031 174.996094 74.648438 175.140625 76.109375 C 175.4375 79.101562 174.222656 79.476562 157.695312 81.113281 C 148.847656 81.988281 132.921875 83.566406 119.511719 84.894531 C 134.695312 82.101562 148.621094 78.042969 148.621094 78.042969 C 148.621094 78.042969 116.378906 82.871094 107.535156 83.746094 C 98.691406 84.621094 87.667969 70.339844 87.667969 70.339844 L 84.375 70.667969 C 89.410156 80.214844 94.039062 85.242188 95.886719 87.046875 C 92.066406 85.492188 83.453125 70.195312 83.453125 70.195312 " fill-opacity="1" fill-rule="nonzero"/></g></g></g></g><g clip-path="url(#e6c6fd61e6)"><g clip-path="url(#a52eadc21b)"><g clip-path="url(#9bbcdebfc7)"><g clip-path="url(#eeac112f57)"><path fill="#2d2d2d" d="M 199.519531 56.828125 C 200.839844 56.695312 202.039062 57.902344 202.199219 59.523438 C 202.359375 61.144531 201.421875 62.5625 200.101562 62.695312 C 198.78125 62.824219 197.582031 61.617188 197.421875 59.996094 C 197.261719 58.378906 198.203125 56.957031 199.519531 56.828125 " fill-opacity="1" fill-rule="nonzero"/></g></g></g></g><g clip-path="url(#47485dab20)"><g clip-path="url(#784714bcc1)"><g clip-path="url(#13d4666866)"><g clip-path="url(#70fee68e03)"><path fill="#2d2d2d" d="M 189.714844 57.796875 C 191.035156 57.667969 192.234375 58.875 192.394531 60.496094 C 192.554688 62.113281 191.613281 63.535156 190.296875 63.664062 C 188.976562 63.796875 187.777344 62.589844 187.617188 60.96875 C 187.457031 59.347656 188.398438 57.929688 189.714844 57.796875 " fill-opacity="1" fill-rule="nonzero"/></g></g></g></g><g clip-path="url(#4a8994c80b)"><g clip-path="url(#2469a3bc2d)"><g clip-path="url(#87ea9b9c78)"><g clip-path="url(#6b831f52b2)"><path fill="#2d2d2d" d="M 179.910156 58.769531 C 181.230469 58.636719 182.429688 59.847656 182.589844 61.464844 C 182.75 63.085938 181.808594 64.507812 180.492188 64.636719 C 179.171875 64.765625 177.972656 63.558594 177.8125 61.941406 C 177.652344 60.320312 178.59375 58.898438 179.910156 58.769531 " fill-opacity="1" fill-rule="nonzero"/></g></g></g></g><g clip-path="url(#b0f6ab12c3)"><g clip-path="url(#121f867b6b)"><g clip-path="url(#9367993488)"><g clip-path="url(#efb3c958ff)"><path fill="#2d2d2d" d="M 170.105469 59.742188 C 171.421875 59.609375 172.625 60.816406 172.785156 62.4375 C 172.945312 64.058594 172.003906 65.476562 170.683594 65.609375 C 169.363281 65.738281 168.167969 64.53125 168.007812 62.910156 C 167.847656 61.292969 168.785156 59.871094 170.105469 59.742188 " fill-opacity="1" fill-rule="nonzero"/></g></g></g></g><g clip-path="url(#3c3e3879af)"><g clip-path="url(#e5cecdbf75)"><g clip-path="url(#de400b5c27)"><g clip-path="url(#6b6fafaef6)"><path fill="#2d2d2d" d="M 160.300781 60.710938 C 161.617188 60.582031 162.816406 61.789062 162.980469 63.410156 C 163.140625 65.03125 162.199219 66.449219 160.878906 66.578125 C 159.558594 66.710938 158.363281 65.503906 158.203125 63.882812 C 158.042969 62.261719 158.980469 60.84375 160.300781 60.710938 " fill-opacity="1" fill-rule="nonzero"/></g></g></g></g><g clip-path="url(#86a93b04f0)"><g clip-path="url(#064fea5831)"><g clip-path="url(#35b4bc1dfb)"><g clip-path="url(#98598b682c)"><path fill="#2d2d2d" d="M 150.496094 61.683594 C 151.8125 61.554688 153.011719 62.761719 153.175781 64.378906 C 153.335938 66 152.394531 67.421875 151.074219 67.550781 C 149.757812 67.683594 148.554688 66.472656 148.394531 64.855469 C 148.234375 63.234375 149.175781 61.8125 150.496094 61.683594 " fill-opacity="1" fill-rule="nonzero"/></g></g></g></g><g clip-path="url(#dc9acd83c8)"><g clip-path="url(#c7943add6f)"><g clip-path="url(#d8662d593a)"><g clip-path="url(#1c335a67bc)"><path fill="#2d2d2d" d="M 140.6875 62.65625 C 142.007812 62.523438 143.207031 63.730469 143.367188 65.351562 C 143.527344 66.972656 142.589844 68.390625 141.269531 68.523438 C 139.949219 68.652344 138.75 67.445312 138.589844 65.824219 C 138.429688 64.207031 139.367188 62.785156 140.6875 62.65625 " fill-opacity="1" fill-rule="nonzero"/></g></g></g></g><g clip-path="url(#64f55a5043)"><g clip-path="url(#1f10da2995)"><g clip-path="url(#8274340b0d)"><g clip-path="url(#923a66d998)"><path fill="#2d2d2d" d="M 130.882812 63.625 C 132.199219 63.496094 133.402344 64.703125 133.5625 66.324219 C 133.722656 67.945312 132.78125 69.363281 131.464844 69.496094 C 130.144531 69.625 128.945312 68.417969 128.785156 66.796875 C 128.625 65.175781 129.5625 63.757812 130.882812 63.625 " fill-opacity="1" fill-rule="nonzero"/></g></g></g></g><g clip-path="url(#fcdc334627)"><g clip-path="url(#320e6298b9)"><g clip-path="url(#62bdfd9759)"><g clip-path="url(#fa235b8989)"><path fill="#2d2d2d" d="M 121.078125 64.597656 C 122.394531 64.46875 123.597656 65.675781 123.757812 67.296875 C 123.917969 68.914062 122.976562 70.335938 121.660156 70.464844 C 120.339844 70.597656 119.140625 69.386719 118.980469 67.769531 C 118.820312 66.148438 119.757812 64.726562 121.078125 64.597656 " fill-opacity="1" fill-rule="nonzero"/></g></g></g></g><g clip-path="url(#5d43f5f824)"><g clip-path="url(#b4bfdeb49b)"><g clip-path="url(#2bde11a55e)"><g clip-path="url(#6868cdc38f)"><path fill="#2d2d2d" d="M 111.269531 65.570312 C 112.589844 65.4375 113.792969 66.644531 113.953125 68.265625 C 114.113281 69.886719 113.171875 71.304688 111.851562 71.4375 C 110.53125 71.566406 109.332031 70.359375 109.171875 68.738281 C 109.011719 67.121094 109.949219 65.699219 111.269531 65.570312 " fill-opacity="1" fill-rule="nonzero"/></g></g></g></g><g clip-path="url(#7d5bffd50f)"><g clip-path="url(#03b395963c)"><g clip-path="url(#9f62d5943d)"><g clip-path="url(#31da77012f)"><path fill="#2d2d2d" d="M 128.273438 53.910156 C 138.46875 52.824219 148.679688 51.816406 158.882812 50.765625 C 169.09375 49.796875 179.296875 48.777344 189.515625 47.847656 L 204.835938 46.464844 C 209.949219 46.039062 215.058594 45.582031 220.171875 45.183594 C 215.078125 45.796875 209.980469 46.351562 204.882812 46.9375 L 189.589844 48.589844 C 179.386719 49.679688 169.183594 50.683594 158.976562 51.734375 C 148.765625 52.710938 138.558594 53.722656 128.347656 54.65625 L 113.023438 56.039062 C 107.910156 56.464844 102.800781 56.921875 97.6875 57.320312 C 102.777344 56.703125 107.878906 56.148438 112.976562 55.566406 L 128.273438 53.910156 " fill-opacity="1" fill-rule="nonzero"/></g></g></g></g><g clip-path="url(#e904f5da17)"><g clip-path="url(#7442d40412)"><g clip-path="url(#ff6509f0b0)"><g clip-path="url(#b4e0936a75)"><path fill="#ffffff" d="M 13.417969 31.644531 C 13.417969 31.644531 20.753906 29.824219 31.605469 28.75 C 32.609375 28.648438 33.644531 28.554688 34.707031 28.472656 C 38.351562 28.179688 40.582031 28.277344 40.648438 28.945312 C 40.707031 29.554688 37.703125 30.054688 33.667969 30.453125 C 25.601562 31.253906 13.417969 31.644531 13.417969 31.644531 " fill-opacity="1" fill-rule="nonzero"/></g></g></g></g></g></g></g></g><g clip-path="url(#df753dc878)"><path fill="#000000" d="M 224.078125 165.074219 L 175.058594 163.40625 L 224.078125 161.742188 C 224.101562 161.675781 224.132812 161.609375 224.160156 161.542969 L 211.894531 146.808594 L 226.125 159.511719 C 226.183594 159.480469 226.25 159.453125 226.3125 159.425781 L 227.921875 108.65625 L 229.53125 159.425781 C 229.597656 159.453125 229.660156 159.480469 229.722656 159.511719 L 243.953125 146.808594 L 231.683594 161.542969 C 231.714844 161.609375 231.742188 161.675781 231.769531 161.742188 L 280.789062 163.40625 L 231.769531 165.074219 C 231.742188 165.140625 231.714844 165.207031 231.683594 165.273438 L 243.953125 180.007812 L 229.722656 167.304688 C 229.660156 167.335938 229.597656 167.363281 229.53125 167.390625 L 227.921875 218.160156 L 226.3125 167.390625 C 226.25 167.363281 226.183594 167.335938 226.125 167.304688 L 211.894531 180.007812 L 224.160156 165.273438 C 224.132812 165.207031 224.101562 165.140625 224.078125 165.074219 Z M 224.078125 165.074219 " fill-opacity="1" fill-rule="evenodd"/></g><g clip-path="url(#05051ac406)"><path fill="#000000" d="M 94.660156 278.375 L 177.617188 278.375 L 177.617188 279.367188 L 94.660156 279.367188 Z M 94.660156 278.375 " fill-opacity="1" fill-rule="nonzero"/></g><g clip-path="url(#c5257cd249)"><path fill="#000000" d="M 197.585938 277.878906 L 280.542969 277.878906 L 280.542969 278.871094 L 197.585938 278.871094 Z M 197.585938 277.878906 " fill-opacity="1" fill-rule="nonzero"/></g><g clip-path="url(#1dd1038bab)"><path fill="#000000" d="M 187.101562 272.375 C 186.597656 277.476562 186.195312 277.878906 181.035156 278.375 C 186.195312 278.871094 186.597656 279.273438 187.101562 284.378906 C 187.601562 279.273438 188.007812 278.871094 193.167969 278.375 C 188.007812 277.878906 187.601562 277.476562 187.101562 272.375 Z M 187.101562 282.703125 C 186.738281 279.023438 186.445312 278.734375 182.726562 278.375 C 186.445312 278.019531 186.738281 277.730469 187.101562 274.050781 C 187.460938 277.730469 187.753906 278.019531 191.472656 278.375 C 187.753906 278.734375 187.460938 279.023438 187.101562 282.703125 Z M 187.101562 282.703125 " fill-opacity="1" fill-rule="nonzero"/></g><g transform="matrix(1, 0, 0, 1, 114, 222)"><g clip-path="url(#726a67696d)"><g fill="#000000" fill-opacity="1"><g transform="translate(0.604494, 34.367825)"><g><path d="M 0.453125 -4.5 C 0.722656 -4.46875 1.003906 -4.453125 1.296875 -4.453125 C 1.597656 -4.453125 1.882812 -4.453125 2.15625 -4.453125 C 2.9375 -4.453125 3.601562 -4.644531 4.15625 -5.03125 C 4.707031 -5.425781 4.984375 -6.234375 4.984375 -7.453125 L 4.984375 -31.453125 L 9.9375 -31.453125 L 9.9375 -7.8125 C 9.9375 -6.226562 9.738281 -4.925781 9.34375 -3.90625 C 8.957031 -2.882812 8.429688 -2.082031 7.765625 -1.5 C 7.109375 -0.914062 6.351562 -0.503906 5.5 -0.265625 C 4.644531 -0.0234375 3.753906 0.09375 2.828125 0.09375 C 2.378906 0.09375 1.972656 0.09375 1.609375 0.09375 C 1.253906 0.09375 0.867188 0.0625 0.453125 0 Z M 0.453125 -4.5 "/></g></g></g><g fill="#000000" fill-opacity="1"><g transform="translate(12.108512, 34.367825)"><g><path d="M 6.734375 -18.203125 L 13.53125 -18.203125 L 13.53125 -13.703125 L 6.734375 -13.703125 L 6.734375 -4.5 L 15.28125 -4.5 L 15.28125 0 L 1.796875 0 L 1.796875 -31.453125 L 15.28125 -31.453125 L 15.28125 -26.96875 L 6.734375 -26.96875 Z M 6.734375 -18.203125 "/></g></g></g><g fill="#000000" fill-opacity="1"><g transform="translate(28.645541, 34.367825)"><g><path d="M 0.453125 -31.453125 L 15.734375 -31.453125 L 15.734375 -26.96875 L 10.5625 -26.96875 L 10.5625 0 L 5.625 0 L 5.625 -26.96875 L 0.453125 -26.96875 Z M 0.453125 -31.453125 "/></g></g></g><g fill="#000000" fill-opacity="1"><g transform="translate(44.823064, 34.367825)"><g/></g></g><g fill="#000000" fill-opacity="1"><g transform="translate(51.788385, 34.367825)"><g><path d="M 9.078125 -31.453125 C 11.566406 -31.453125 13.414062 -30.789062 14.625 -29.46875 C 15.84375 -28.15625 16.453125 -26.226562 16.453125 -23.6875 L 16.453125 -19.59375 C 16.453125 -17.039062 15.84375 -15.101562 14.625 -13.78125 C 13.414062 -12.46875 11.566406 -11.8125 9.078125 -11.8125 L 6.734375 -11.8125 L 6.734375 0 L 1.796875 0 L 1.796875 -31.453125 Z M 6.734375 -26.96875 L 6.734375 -16.3125 L 9.078125 -16.3125 C 9.859375 -16.3125 10.457031 -16.519531 10.875 -16.9375 C 11.289062 -17.363281 11.5 -18.144531 11.5 -19.28125 L 11.5 -24 C 11.5 -25.132812 11.289062 -25.910156 10.875 -26.328125 C 10.457031 -26.753906 9.859375 -26.96875 9.078125 -26.96875 Z M 6.734375 -26.96875 "/></g></g></g><g fill="#000000" fill-opacity="1"><g transform="translate(68.729847, 34.367825)"><g><path d="M 6.34375 -7.234375 C 6.34375 -6.097656 6.570312 -5.296875 7.03125 -4.828125 C 7.5 -4.367188 8.117188 -4.140625 8.890625 -4.140625 C 9.671875 -4.140625 10.289062 -4.367188 10.75 -4.828125 C 11.21875 -5.296875 11.453125 -6.097656 11.453125 -7.234375 L 11.453125 -24.21875 C 11.453125 -25.351562 11.21875 -26.15625 10.75 -26.625 C 10.289062 -27.09375 9.671875 -27.328125 8.890625 -27.328125 C 8.117188 -27.328125 7.5 -27.09375 7.03125 -26.625 C 6.570312 -26.15625 6.34375 -25.351562 6.34375 -24.21875 Z M 1.390625 -23.90625 C 1.390625 -26.445312 2.03125 -28.398438 3.3125 -29.765625 C 4.601562 -31.128906 6.460938 -31.8125 8.890625 -31.8125 C 11.316406 -31.8125 13.175781 -31.128906 14.46875 -29.765625 C 15.757812 -28.398438 16.40625 -26.445312 16.40625 -23.90625 L 16.40625 -7.546875 C 16.40625 -5.003906 15.757812 -3.050781 14.46875 -1.6875 C 13.175781 -0.320312 11.316406 0.359375 8.890625 0.359375 C 6.460938 0.359375 4.601562 -0.320312 3.3125 -1.6875 C 2.03125 -3.050781 1.390625 -5.003906 1.390625 -7.546875 Z M 1.390625 -23.90625 "/></g></g></g><g fill="#000000" fill-opacity="1"><g transform="translate(86.525122, 34.367825)"><g><path d="M 1.796875 -31.453125 L 6.734375 -31.453125 L 6.734375 -4.5 L 14.875 -4.5 L 14.875 0 L 1.796875 0 Z M 1.796875 -31.453125 "/></g></g></g><g fill="#000000" fill-opacity="1"><g transform="translate(101.848832, 34.367825)"><g><path d="M 1.796875 -31.453125 L 6.734375 -31.453125 L 6.734375 0 L 1.796875 0 Z M 1.796875 -31.453125 "/></g></g></g><g fill="#000000" fill-opacity="1"><g transform="translate(110.38697, 34.367825)"><g><path d="M 1.171875 -23.90625 C 1.171875 -26.445312 1.773438 -28.398438 2.984375 -29.765625 C 4.203125 -31.128906 6.023438 -31.8125 8.453125 -31.8125 C 10.878906 -31.8125 12.695312 -31.128906 13.90625 -29.765625 C 15.125 -28.398438 15.734375 -26.445312 15.734375 -23.90625 L 15.734375 -22.6875 L 11.046875 -22.6875 L 11.046875 -24.21875 C 11.046875 -25.351562 10.828125 -26.15625 10.390625 -26.625 C 9.960938 -27.09375 9.359375 -27.328125 8.578125 -27.328125 C 7.804688 -27.328125 7.203125 -27.09375 6.765625 -26.625 C 6.328125 -26.15625 6.109375 -25.351562 6.109375 -24.21875 C 6.109375 -23.144531 6.347656 -22.191406 6.828125 -21.359375 C 7.304688 -20.535156 7.90625 -19.757812 8.625 -19.03125 C 9.34375 -18.300781 10.113281 -17.566406 10.9375 -16.828125 C 11.757812 -16.097656 12.53125 -15.296875 13.25 -14.421875 C 13.96875 -13.554688 14.566406 -12.566406 15.046875 -11.453125 C 15.523438 -10.347656 15.765625 -9.046875 15.765625 -7.546875 C 15.765625 -5.003906 15.144531 -3.050781 13.90625 -1.6875 C 12.664062 -0.320312 10.832031 0.359375 8.40625 0.359375 C 5.976562 0.359375 4.140625 -0.320312 2.890625 -1.6875 C 1.648438 -3.050781 1.03125 -5.003906 1.03125 -7.546875 L 1.03125 -9.703125 L 5.703125 -9.703125 L 5.703125 -7.234375 C 5.703125 -6.097656 5.929688 -5.300781 6.390625 -4.84375 C 6.859375 -4.394531 7.484375 -4.171875 8.265625 -4.171875 C 9.046875 -4.171875 9.664062 -4.394531 10.125 -4.84375 C 10.59375 -5.300781 10.828125 -6.097656 10.828125 -7.234375 C 10.828125 -8.316406 10.585938 -9.269531 10.109375 -10.09375 C 9.628906 -10.914062 9.03125 -11.691406 8.3125 -12.421875 C 7.59375 -13.160156 6.820312 -13.894531 6 -14.625 C 5.175781 -15.363281 4.40625 -16.164062 3.6875 -17.03125 C 2.96875 -17.894531 2.367188 -18.878906 1.890625 -19.984375 C 1.410156 -21.097656 1.171875 -22.40625 1.171875 -23.90625 Z M 1.171875 -23.90625 "/></g></g></g><g fill="#000000" fill-opacity="1"><g transform="translate(127.193617, 34.367825)"><g><path d="M 6.734375 0 L 1.796875 0 L 1.796875 -31.453125 L 6.734375 -31.453125 L 6.734375 -17.96875 L 12.359375 -17.96875 L 12.359375 -31.453125 L 17.390625 -31.453125 L 17.390625 0 L 12.359375 0 L 12.359375 -13.484375 L 6.734375 -13.484375 Z M 6.734375 0 "/></g></g></g></g></g></svg>