<svg xmlns="http://www.w3.org/2000/svg" xmlns:xlink="http://www.w3.org/1999/xlink" width="500" zoomAndPan="magnify" viewBox="0 0 375 374.999991" height="500" preserveAspectRatio="xMidYMid meet" version="1.0"><defs><g/><clipPath id="380609c751"><path d="M 14 86 L 361 86 L 361 215 L 14 215 Z M 14 86 " clip-rule="nonzero"/></clipPath><clipPath id="5d69e88e6e"><path d="M 14.433594 119.597656 L 351.039062 86.25 L 360.429688 181.035156 L 23.824219 214.382812 Z M 14.433594 119.597656 " clip-rule="nonzero"/></clipPath><clipPath id="ef984a4b20"><path d="M 31 51 L 53 51 L 53 81 L 31 81 Z M 31 51 " clip-rule="nonzero"/></clipPath><clipPath id="6f57ec8379"><path d="M 0.433594 33.597656 L 337.039062 0.25 L 346.429688 95.035156 L 9.824219 128.382812 Z M 0.433594 33.597656 " clip-rule="nonzero"/></clipPath><clipPath id="609b15bd3d"><path d="M 337.128906 0.242188 L 0.527344 33.585938 L 9.917969 128.375 L 346.519531 95.027344 Z M 337.128906 0.242188 " clip-rule="nonzero"/></clipPath><clipPath id="607fcd1593"><path d="M 337.128906 0.242188 L 0.527344 33.585938 L 9.917969 128.375 L 346.519531 95.027344 Z M 337.128906 0.242188 " clip-rule="nonzero"/></clipPath><clipPath id="4bc79ba4af"><path d="M 3 30 L 105 30 L 105 79 L 3 79 Z M 3 30 " clip-rule="nonzero"/></clipPath><clipPath id="19bac46ea6"><path d="M 0.433594 33.597656 L 337.039062 0.25 L 346.429688 95.035156 L 9.824219 128.382812 Z M 0.433594 33.597656 " clip-rule="nonzero"/></clipPath><clipPath id="6335966644"><path d="M 337.128906 0.242188 L 0.527344 33.585938 L 9.917969 128.375 L 346.519531 95.027344 Z M 337.128906 0.242188 " clip-rule="nonzero"/></clipPath><clipPath id="bc6d737881"><path d="M 337.128906 0.242188 L 0.527344 33.585938 L 9.917969 128.375 L 346.519531 95.027344 Z M 337.128906 0.242188 " clip-rule="nonzero"/></clipPath><clipPath id="5002e79aa4"><path d="M 1 28 L 345 28 L 345 114 L 1 114 Z M 1 28 " clip-rule="nonzero"/></clipPath><clipPath id="93473b2a2b"><path d="M 0.433594 33.597656 L 337.039062 0.25 L 346.429688 95.035156 L 9.824219 128.382812 Z M 0.433594 33.597656 " clip-rule="nonzero"/></clipPath><clipPath id="426eb97137"><path d="M 337.128906 0.242188 L 0.527344 33.585938 L 9.917969 128.375 L 346.519531 95.027344 Z M 337.128906 0.242188 " clip-rule="nonzero"/></clipPath><clipPath id="55caa81fbd"><path d="M 337.128906 0.242188 L 0.527344 33.585938 L 9.917969 128.375 L 346.519531 95.027344 Z M 337.128906 0.242188 " clip-rule="nonzero"/></clipPath><clipPath id="140addeeff"><path d="M 260 62 L 276 62 L 276 89 L 260 89 Z M 260 62 " clip-rule="nonzero"/></clipPath><clipPath id="6ec7dc3c4b"><path d="M 0.433594 33.597656 L 337.039062 0.25 L 346.429688 95.035156 L 9.824219 128.382812 Z M 0.433594 33.597656 " clip-rule="nonzero"/></clipPath><clipPath id="db87926a51"><path d="M 337.128906 0.242188 L 0.527344 33.585938 L 9.917969 128.375 L 346.519531 95.027344 Z M 337.128906 0.242188 " clip-rule="nonzero"/></clipPath><clipPath id="33fe8a6a09"><path d="M 337.128906 0.242188 L 0.527344 33.585938 L 9.917969 128.375 L 346.519531 95.027344 Z M 337.128906 0.242188 " clip-rule="nonzero"/></clipPath><clipPath id="4d8dc0b2cf"><path d="M 216 90 L 251 90 L 251 99 L 216 99 Z M 216 90 " clip-rule="nonzero"/></clipPath><clipPath id="ccfc9ced24"><path d="M 0.433594 33.597656 L 337.039062 0.25 L 346.429688 95.035156 L 9.824219 128.382812 Z M 0.433594 33.597656 " clip-rule="nonzero"/></clipPath><clipPath id="b740c0de2e"><path d="M 337.128906 0.242188 L 0.527344 33.585938 L 9.917969 128.375 L 346.519531 95.027344 Z M 337.128906 0.242188 " clip-rule="nonzero"/></clipPath><clipPath id="924aad54b0"><path d="M 337.128906 0.242188 L 0.527344 33.585938 L 9.917969 128.375 L 346.519531 95.027344 Z M 337.128906 0.242188 " clip-rule="nonzero"/></clipPath><clipPath id="89fbd0f182"><path d="M 98 97 L 110 97 L 110 101 L 98 101 Z M 98 97 " clip-rule="nonzero"/></clipPath><clipPath id="f2a57d294c"><path d="M 0.433594 33.597656 L 337.039062 0.25 L 346.429688 95.035156 L 9.824219 128.382812 Z M 0.433594 33.597656 " clip-rule="nonzero"/></clipPath><clipPath id="7041f1b1fa"><path d="M 337.128906 0.242188 L 0.527344 33.585938 L 9.917969 128.375 L 346.519531 95.027344 Z M 337.128906 0.242188 " clip-rule="nonzero"/></clipPath><clipPath id="eaa9303601"><path d="M 337.128906 0.242188 L 0.527344 33.585938 L 9.917969 128.375 L 346.519531 95.027344 Z M 337.128906 0.242188 " clip-rule="nonzero"/></clipPath><clipPath id="46645097a8"><path d="M 148 103 L 190 103 L 190 108 L 148 108 Z M 148 103 " clip-rule="nonzero"/></clipPath><clipPath id="f669aee7fb"><path d="M 0.433594 33.597656 L 337.039062 0.25 L 346.429688 95.035156 L 9.824219 128.382812 Z M 0.433594 33.597656 " clip-rule="nonzero"/></clipPath><clipPath id="04b2275f83"><path d="M 337.128906 0.242188 L 0.527344 33.585938 L 9.917969 128.375 L 346.519531 95.027344 Z M 337.128906 0.242188 " clip-rule="nonzero"/></clipPath><clipPath id="3a0ae803aa"><path d="M 337.128906 0.242188 L 0.527344 33.585938 L 9.917969 128.375 L 346.519531 95.027344 Z M 337.128906 0.242188 " clip-rule="nonzero"/></clipPath><clipPath id="c105122d6d"><path d="M 41 53 L 343 53 L 343 105 L 41 105 Z M 41 53 " clip-rule="nonzero"/></clipPath><clipPath id="e9ae73e8ad"><path d="M 0.433594 33.597656 L 337.039062 0.25 L 346.429688 95.035156 L 9.824219 128.382812 Z M 0.433594 33.597656 " clip-rule="nonzero"/></clipPath><clipPath id="bc30515ac1"><path d="M 337.128906 0.242188 L 0.527344 33.585938 L 9.917969 128.375 L 346.519531 95.027344 Z M 337.128906 0.242188 " clip-rule="nonzero"/></clipPath><clipPath id="1242dcb229"><path d="M 337.128906 0.242188 L 0.527344 33.585938 L 9.917969 128.375 L 346.519531 95.027344 Z M 337.128906 0.242188 " clip-rule="nonzero"/></clipPath><clipPath id="46096411c3"><path d="M 71 74 L 126 74 L 126 92 L 71 92 Z M 71 74 " clip-rule="nonzero"/></clipPath><clipPath id="92f6214e83"><path d="M 0.433594 33.597656 L 337.039062 0.25 L 346.429688 95.035156 L 9.824219 128.382812 Z M 0.433594 33.597656 " clip-rule="nonzero"/></clipPath><clipPath id="62cefdc6ce"><path d="M 337.128906 0.242188 L 0.527344 33.585938 L 9.917969 128.375 L 346.519531 95.027344 Z M 337.128906 0.242188 " clip-rule="nonzero"/></clipPath><clipPath id="e9a61016f3"><path d="M 337.128906 0.242188 L 0.527344 33.585938 L 9.917969 128.375 L 346.519531 95.027344 Z M 337.128906 0.242188 " clip-rule="nonzero"/></clipPath><clipPath id="74005744c9"><path d="M 283 58 L 299 58 L 299 69 L 283 69 Z M 283 58 " clip-rule="nonzero"/></clipPath><clipPath id="8f69dd27a9"><path d="M 0.433594 33.597656 L 337.039062 0.25 L 346.429688 95.035156 L 9.824219 128.382812 Z M 0.433594 33.597656 " clip-rule="nonzero"/></clipPath><clipPath id="2a63395d5c"><path d="M 337.128906 0.242188 L 0.527344 33.585938 L 9.917969 128.375 L 346.519531 95.027344 Z M 337.128906 0.242188 " clip-rule="nonzero"/></clipPath><clipPath id="78e52c8bd6"><path d="M 337.128906 0.242188 L 0.527344 33.585938 L 9.917969 128.375 L 346.519531 95.027344 Z M 337.128906 0.242188 " clip-rule="nonzero"/></clipPath><clipPath id="3f1dfd26f8"><path d="M 103 86 L 218 86 L 218 108 L 103 108 Z M 103 86 " clip-rule="nonzero"/></clipPath><clipPath id="49c56bbb8c"><path d="M 0.433594 33.597656 L 337.039062 0.25 L 346.429688 95.035156 L 9.824219 128.382812 Z M 0.433594 33.597656 " clip-rule="nonzero"/></clipPath><clipPath id="5b064976a3"><path d="M 337.128906 0.242188 L 0.527344 33.585938 L 9.917969 128.375 L 346.519531 95.027344 Z M 337.128906 0.242188 " clip-rule="nonzero"/></clipPath><clipPath id="253f5bd55a"><path d="M 337.128906 0.242188 L 0.527344 33.585938 L 9.917969 128.375 L 346.519531 95.027344 Z M 337.128906 0.242188 " clip-rule="nonzero"/></clipPath><clipPath id="31c5fc0647"><path d="M 245 70 L 252 70 L 252 78 L 245 78 Z M 245 70 " clip-rule="nonzero"/></clipPath><clipPath id="dd1238b53a"><path d="M 0.433594 33.597656 L 337.039062 0.25 L 346.429688 95.035156 L 9.824219 128.382812 Z M 0.433594 33.597656 " clip-rule="nonzero"/></clipPath><clipPath id="fd865bc570"><path d="M 337.128906 0.242188 L 0.527344 33.585938 L 9.917969 128.375 L 346.519531 95.027344 Z M 337.128906 0.242188 " clip-rule="nonzero"/></clipPath><clipPath id="65c44da6e1"><path d="M 337.128906 0.242188 L 0.527344 33.585938 L 9.917969 128.375 L 346.519531 95.027344 Z M 337.128906 0.242188 " clip-rule="nonzero"/></clipPath><clipPath id="8ebfcfa2c2"><path d="M 233 71 L 240 71 L 240 79 L 233 79 Z M 233 71 " clip-rule="nonzero"/></clipPath><clipPath id="8976ce9a8d"><path d="M 0.433594 33.597656 L 337.039062 0.25 L 346.429688 95.035156 L 9.824219 128.382812 Z M 0.433594 33.597656 " clip-rule="nonzero"/></clipPath><clipPath id="de86a0c34d"><path d="M 337.128906 0.242188 L 0.527344 33.585938 L 9.917969 128.375 L 346.519531 95.027344 Z M 337.128906 0.242188 " clip-rule="nonzero"/></clipPath><clipPath id="023507ed7e"><path d="M 337.128906 0.242188 L 0.527344 33.585938 L 9.917969 128.375 L 346.519531 95.027344 Z M 337.128906 0.242188 " clip-rule="nonzero"/></clipPath><clipPath id="e0b1733c93"><path d="M 220 72 L 227 72 L 227 81 L 220 81 Z M 220 72 " clip-rule="nonzero"/></clipPath><clipPath id="4c0f11696e"><path d="M 0.433594 33.597656 L 337.039062 0.25 L 346.429688 95.035156 L 9.824219 128.382812 Z M 0.433594 33.597656 " clip-rule="nonzero"/></clipPath><clipPath id="aeb3f58fcc"><path d="M 337.128906 0.242188 L 0.527344 33.585938 L 9.917969 128.375 L 346.519531 95.027344 Z M 337.128906 0.242188 " clip-rule="nonzero"/></clipPath><clipPath id="1b1d8ec5d6"><path d="M 337.128906 0.242188 L 0.527344 33.585938 L 9.917969 128.375 L 346.519531 95.027344 Z M 337.128906 0.242188 " clip-rule="nonzero"/></clipPath><clipPath id="390a1c5ad9"><path d="M 208 73 L 215 73 L 215 82 L 208 82 Z M 208 73 " clip-rule="nonzero"/></clipPath><clipPath id="e78d140f1e"><path d="M 0.433594 33.597656 L 337.039062 0.25 L 346.429688 95.035156 L 9.824219 128.382812 Z M 0.433594 33.597656 " clip-rule="nonzero"/></clipPath><clipPath id="b2174aa845"><path d="M 337.128906 0.242188 L 0.527344 33.585938 L 9.917969 128.375 L 346.519531 95.027344 Z M 337.128906 0.242188 " clip-rule="nonzero"/></clipPath><clipPath id="3dc353a908"><path d="M 337.128906 0.242188 L 0.527344 33.585938 L 9.917969 128.375 L 346.519531 95.027344 Z M 337.128906 0.242188 " clip-rule="nonzero"/></clipPath><clipPath id="64a6f7f5e2"><path d="M 196 75 L 203 75 L 203 83 L 196 83 Z M 196 75 " clip-rule="nonzero"/></clipPath><clipPath id="dafd64fee1"><path d="M 0.433594 33.597656 L 337.039062 0.25 L 346.429688 95.035156 L 9.824219 128.382812 Z M 0.433594 33.597656 " clip-rule="nonzero"/></clipPath><clipPath id="f97e013964"><path d="M 337.128906 0.242188 L 0.527344 33.585938 L 9.917969 128.375 L 346.519531 95.027344 Z M 337.128906 0.242188 " clip-rule="nonzero"/></clipPath><clipPath id="4633d3d047"><path d="M 337.128906 0.242188 L 0.527344 33.585938 L 9.917969 128.375 L 346.519531 95.027344 Z M 337.128906 0.242188 " clip-rule="nonzero"/></clipPath><clipPath id="52b5b393be"><path d="M 184 76 L 191 76 L 191 84 L 184 84 Z M 184 76 " clip-rule="nonzero"/></clipPath><clipPath id="f7818cbce9"><path d="M 0.433594 33.597656 L 337.039062 0.25 L 346.429688 95.035156 L 9.824219 128.382812 Z M 0.433594 33.597656 " clip-rule="nonzero"/></clipPath><clipPath id="8779f104c0"><path d="M 337.128906 0.242188 L 0.527344 33.585938 L 9.917969 128.375 L 346.519531 95.027344 Z M 337.128906 0.242188 " clip-rule="nonzero"/></clipPath><clipPath id="f9833d42c6"><path d="M 337.128906 0.242188 L 0.527344 33.585938 L 9.917969 128.375 L 346.519531 95.027344 Z M 337.128906 0.242188 " clip-rule="nonzero"/></clipPath><clipPath id="7dfe158b78"><path d="M 172 77 L 179 77 L 179 85 L 172 85 Z M 172 77 " clip-rule="nonzero"/></clipPath><clipPath id="37a0b090d1"><path d="M 0.433594 33.597656 L 337.039062 0.25 L 346.429688 95.035156 L 9.824219 128.382812 Z M 0.433594 33.597656 " clip-rule="nonzero"/></clipPath><clipPath id="4756ed4672"><path d="M 337.128906 0.242188 L 0.527344 33.585938 L 9.917969 128.375 L 346.519531 95.027344 Z M 337.128906 0.242188 " clip-rule="nonzero"/></clipPath><clipPath id="cc0610a467"><path d="M 337.128906 0.242188 L 0.527344 33.585938 L 9.917969 128.375 L 346.519531 95.027344 Z M 337.128906 0.242188 " clip-rule="nonzero"/></clipPath><clipPath id="d95610ffd2"><path d="M 159 78 L 166 78 L 166 87 L 159 87 Z M 159 78 " clip-rule="nonzero"/></clipPath><clipPath id="d1891142bb"><path d="M 0.433594 33.597656 L 337.039062 0.25 L 346.429688 95.035156 L 9.824219 128.382812 Z M 0.433594 33.597656 " clip-rule="nonzero"/></clipPath><clipPath id="234ea5507d"><path d="M 337.128906 0.242188 L 0.527344 33.585938 L 9.917969 128.375 L 346.519531 95.027344 Z M 337.128906 0.242188 " clip-rule="nonzero"/></clipPath><clipPath id="3b9eaf976e"><path d="M 337.128906 0.242188 L 0.527344 33.585938 L 9.917969 128.375 L 346.519531 95.027344 Z M 337.128906 0.242188 " clip-rule="nonzero"/></clipPath><clipPath id="96c1bba295"><path d="M 147 80 L 154 80 L 154 88 L 147 88 Z M 147 80 " clip-rule="nonzero"/></clipPath><clipPath id="90aade704f"><path d="M 0.433594 33.597656 L 337.039062 0.25 L 346.429688 95.035156 L 9.824219 128.382812 Z M 0.433594 33.597656 " clip-rule="nonzero"/></clipPath><clipPath id="8f8e1010da"><path d="M 337.128906 0.242188 L 0.527344 33.585938 L 9.917969 128.375 L 346.519531 95.027344 Z M 337.128906 0.242188 " clip-rule="nonzero"/></clipPath><clipPath id="7622575c63"><path d="M 337.128906 0.242188 L 0.527344 33.585938 L 9.917969 128.375 L 346.519531 95.027344 Z M 337.128906 0.242188 " clip-rule="nonzero"/></clipPath><clipPath id="af3cee7b5b"><path d="M 135 81 L 142 81 L 142 89 L 135 89 Z M 135 81 " clip-rule="nonzero"/></clipPath><clipPath id="28a8b99a7d"><path d="M 0.433594 33.597656 L 337.039062 0.25 L 346.429688 95.035156 L 9.824219 128.382812 Z M 0.433594 33.597656 " clip-rule="nonzero"/></clipPath><clipPath id="7bc370a0ed"><path d="M 337.128906 0.242188 L 0.527344 33.585938 L 9.917969 128.375 L 346.519531 95.027344 Z M 337.128906 0.242188 " clip-rule="nonzero"/></clipPath><clipPath id="37495448ee"><path d="M 337.128906 0.242188 L 0.527344 33.585938 L 9.917969 128.375 L 346.519531 95.027344 Z M 337.128906 0.242188 " clip-rule="nonzero"/></clipPath><clipPath id="9c2764283a"><path d="M 121 56 L 274 56 L 274 72 L 121 72 Z M 121 56 " clip-rule="nonzero"/></clipPath><clipPath id="ca26d9a03f"><path d="M 0.433594 33.597656 L 337.039062 0.25 L 346.429688 95.035156 L 9.824219 128.382812 Z M 0.433594 33.597656 " clip-rule="nonzero"/></clipPath><clipPath id="29c4aef2f6"><path d="M 337.128906 0.242188 L 0.527344 33.585938 L 9.917969 128.375 L 346.519531 95.027344 Z M 337.128906 0.242188 " clip-rule="nonzero"/></clipPath><clipPath id="849c6d8e03"><path d="M 337.128906 0.242188 L 0.527344 33.585938 L 9.917969 128.375 L 346.519531 95.027344 Z M 337.128906 0.242188 " clip-rule="nonzero"/></clipPath><clipPath id="d2913f09bf"><path d="M 16 35 L 51 35 L 51 40 L 16 40 Z M 16 35 " clip-rule="nonzero"/></clipPath><clipPath id="b553987d23"><path d="M 0.433594 33.597656 L 337.039062 0.25 L 346.429688 95.035156 L 9.824219 128.382812 Z M 0.433594 33.597656 " clip-rule="nonzero"/></clipPath><clipPath id="5ed389cb35"><path d="M 337.128906 0.242188 L 0.527344 33.585938 L 9.917969 128.375 L 346.519531 95.027344 Z M 337.128906 0.242188 " clip-rule="nonzero"/></clipPath><clipPath id="a3f1c7f59b"><path d="M 337.128906 0.242188 L 0.527344 33.585938 L 9.917969 128.375 L 346.519531 95.027344 Z M 337.128906 0.242188 " clip-rule="nonzero"/></clipPath><clipPath id="9a27b35421"><rect x="0" width="347" y="0" height="129"/></clipPath><clipPath id="f3427ee7f0"><path d="M 172.050781 78.363281 L 303.300781 78.363281 L 303.300781 214.863281 L 172.050781 214.863281 Z M 172.050781 78.363281 " clip-rule="nonzero"/></clipPath><clipPath id="262287d98f"><path d="M 179 281.585938 L 195 281.585938 L 195 296.585938 L 179 296.585938 Z M 179 281.585938 " clip-rule="nonzero"/></clipPath><clipPath id="67f98d7c69"><rect x="0" width="265" y="0" height="82"/></clipPath></defs><g clip-path="url(#380609c751)"><g clip-path="url(#5d69e88e6e)"><g transform="matrix(1, 0, 0, 1, 14, 86)"><g clip-path="url(#9a27b35421)"><g clip-path="url(#ef984a4b20)"><g clip-path="url(#6f57ec8379)"><g clip-path="url(#609b15bd3d)"><g clip-path="url(#607fcd1593)"><path fill="#67adf5" d="M 37.710938 51.464844 L 52.433594 78.855469 C 48.703125 79.671875 45.765625 80.351562 43.707031 80.84375 L 31.332031 57.242188 C 32.59375 56.128906 34.980469 53.988281 37.710938 51.464844 " fill-opacity="1" fill-rule="nonzero"/></g></g></g></g><g clip-path="url(#4bc79ba4af)"><g clip-path="url(#19bac46ea6)"><g clip-path="url(#6335966644)"><g clip-path="url(#bc6d737881)"><path fill="#ffffff" d="M 104.015625 66.742188 L 104.71875 69.484375 C 83.070312 72.601562 65.550781 76.027344 54.269531 78.457031 L 39.078125 50.191406 C 41.035156 48.363281 43.082031 46.410156 44.957031 44.539062 C 56.875 43.445312 61.34375 41.53125 61.34375 41.53125 C 61.34375 41.53125 54.796875 42.179688 46.8125 42.65625 C 48.730469 40.671875 50.320312 38.882812 51.210938 37.589844 C 51.707031 37.222656 52.027344 36.71875 51.957031 36.007812 C 51.742188 33.847656 48.789062 33.6875 43.039062 34.144531 C 41.753906 34.25 40.449219 34.367188 39.15625 34.496094 C 25.730469 35.824219 16.449219 38.09375 16.359375 38.117188 L 6.5625 40.535156 C 3.855469 40.003906 3.644531 39.523438 3.546875 38.511719 C 3.347656 36.519531 45.824219 31.507812 52.414062 30.855469 C 58.003906 30.300781 77.546875 53.765625 85.871094 61.195312 C 90.410156 65.601562 94.347656 70.238281 94.347656 70.238281 C 94.347656 70.238281 93.265625 65.988281 91.957031 63.621094 C 94.710938 63.777344 98.144531 63.886719 100.511719 63.953125 C 102.175781 64 103.601562 65.140625 104.015625 66.742188 " fill-opacity="1" fill-rule="nonzero"/></g></g></g></g><g clip-path="url(#5002e79aa4)"><g clip-path="url(#93473b2a2b)"><g clip-path="url(#426eb97137)"><g clip-path="url(#55caa81fbd)"><path fill="#2d2d2d" d="M 4.65625 35.328125 C 5.847656 34.988281 7.503906 34.621094 9.730469 34.207031 C 13.425781 33.511719 18.601562 32.703125 25.105469 31.800781 C 36.886719 30.167969 49.078125 28.773438 52.179688 28.464844 C 56.5 28.039062 63.128906 34.203125 77.324219 49.125 C 81.777344 53.8125 87.847656 60.195312 89.566406 61.042969 C 92.308594 61.296875 97.617188 61.46875 100.582031 61.550781 C 103.300781 61.628906 105.675781 63.515625 106.347656 66.144531 L 107.121094 69.140625 C 117.035156 67.746094 127.773438 66.425781 139.152344 65.296875 L 275.804688 51.761719 C 290.421875 50.3125 302.972656 57.007812 309.714844 60.605469 C 311.003906 61.292969 312.117188 61.886719 312.984375 62.289062 C 314.5 62.996094 317.964844 63.785156 321.632812 64.621094 C 332.070312 67.007812 343.90625 69.707031 344.566406 76.371094 C 345.382812 84.625 328.71875 88.953125 275.96875 94.175781 C 251.011719 96.648438 229.027344 101.238281 209.632812 105.28125 C 194.082031 108.527344 179.398438 111.589844 166.058594 112.910156 C 156.5 113.855469 140.570312 112.441406 123.230469 110.054688 L 120.175781 110.359375 C 119.136719 110.460938 118.003906 110.1875 116.546875 109.101562 C 86.039062 104.582031 53.183594 97.6875 43.710938 95.652344 C 41.734375 95.226562 40.277344 93.59375 40.078125 91.582031 L 39.519531 85.960938 C 39.351562 84.273438 40.136719 82.675781 41.453125 81.730469 L 22.1875 44.980469 L 20.054688 44.726562 C 11.859375 43.757812 7.742188 43.273438 5.453125 42.757812 C 3.058594 42.21875 1.402344 41.328125 1.148438 38.75 C 0.914062 36.394531 3.445312 35.675781 4.65625 35.328125 Z M 43.621094 83.332031 C 42.535156 83.597656 41.804688 84.617188 41.914062 85.722656 C 41.996094 87.082031 42.082031 88.445312 42.183594 89.800781 L 42.253906 90.820312 C 42.285156 91.148438 42.277344 91.503906 42.382812 91.867188 C 42.589844 92.578125 43.144531 93.191406 43.859375 93.460938 C 44.234375 93.59375 44.542969 93.632812 44.882812 93.71875 L 45.878906 93.953125 L 47.875 94.410156 L 51.867188 95.316406 C 57.199219 96.511719 62.546875 97.605469 67.902344 98.667969 C 73.265625 99.699219 78.632812 100.703125 84.019531 101.597656 L 92.109375 102.90625 C 94.808594 103.300781 97.511719 103.710938 100.21875 104.058594 C 97.546875 103.488281 94.867188 102.976562 92.195312 102.417969 L 84.164062 100.828125 L 68.101562 97.664062 L 52.03125 94.546875 L 48.007812 93.78125 L 46 93.390625 L 44.996094 93.191406 C 44.671875 93.125 44.296875 93.070312 44.027344 92.988281 C 43.449219 92.808594 42.957031 92.339844 42.753906 91.75 C 42.644531 91.464844 42.632812 91.128906 42.582031 90.785156 L 42.558594 90.59375 C 52.234375 90.207031 61.570312 90.675781 70.136719 91.648438 L 69.410156 84.324219 C 69.335938 83.574219 69.742188 82.855469 70.421875 82.527344 C 70.574219 82.453125 74.1875 80.75 81.449219 80.027344 C 84.441406 79.734375 88.785156 78.507812 93.378906 77.210938 C 99.28125 75.542969 105.976562 73.652344 112.03125 73.054688 C 123.058594 71.960938 125.632812 75.058594 126.15625 76.035156 C 126.273438 76.242188 126.34375 76.472656 126.367188 76.710938 L 127.78125 91 C 127.804688 91.234375 127.78125 91.476562 127.710938 91.703125 C 127.492188 92.40625 126.578125 94.199219 122.777344 95.644531 C 124.910156 97.222656 127.125 98.570312 129.253906 99.40625 C 151.933594 95.804688 183.304688 91.121094 206.242188 88.847656 C 227.207031 86.773438 242.917969 87.859375 252.398438 89.136719 C 253.675781 89.308594 254.871094 89.484375 255.992188 89.667969 C 257.792969 89.390625 259.578125 89.117188 261.351562 88.855469 C 261.335938 88.78125 259.007812 65.296875 259.007812 65.296875 C 258.835938 63.554688 260.117188 62 261.863281 61.824219 L 271.421875 60.878906 C 273.167969 60.703125 274.734375 61.980469 274.90625 63.722656 L 277.175781 86.625 C 308.832031 82.347656 333.238281 79.933594 340.777344 74.496094 C 341.125 74.890625 341.394531 75.28125 341.578125 75.699219 C 341.738281 76.121094 341.863281 76.574219 341.8125 77.011719 C 341.789062 77.898438 341.171875 78.679688 340.460938 79.296875 C 338.984375 80.539062 337.101562 81.316406 335.246094 82.011719 C 331.480469 83.351562 327.542969 84.242188 323.609375 85.039062 C 315.722656 86.644531 307.730469 87.75 299.746094 88.820312 C 295.75 89.355469 291.746094 89.855469 287.746094 90.335938 L 275.734375 91.789062 C 279.757812 91.484375 283.769531 91.113281 287.789062 90.746094 C 291.804688 90.347656 295.816406 89.921875 299.824219 89.460938 C 307.835938 88.523438 315.839844 87.40625 323.773438 85.859375 C 327.730469 85.035156 331.683594 84.121094 335.507812 82.726562 C 335.988281 82.550781 336.460938 82.371094 336.933594 82.164062 C 337.40625 81.972656 337.867188 81.75 338.328125 81.523438 C 339.238281 81.054688 340.148438 80.550781 340.941406 79.84375 C 341.339844 79.492188 341.703125 79.09375 342.003906 78.632812 C 342.152344 78.402344 342.253906 78.136719 342.371094 77.882812 L 342.464844 77.46875 C 342.503906 77.332031 342.527344 77.191406 342.515625 77.050781 C 342.5625 76.476562 342.402344 75.9375 342.195312 75.429688 C 341.964844 74.933594 341.644531 74.492188 341.292969 74.101562 C 340.570312 73.320312 339.707031 72.738281 338.820312 72.226562 C 337.929688 71.71875 337 71.292969 336.058594 70.910156 C 334.175781 70.15625 332.238281 69.554688 330.289062 69.023438 C 326.386719 67.988281 322.433594 67.1875 318.488281 66.363281 C 317.722656 66.183594 317.003906 66.011719 316.320312 65.839844 L 300.703125 67.386719 L 293.789062 58.28125 L 298.390625 57.824219 C 292.136719 55.3125 284.472656 53.316406 276.039062 54.152344 C 259.460938 55.792969 195.726562 62.105469 139.390625 67.6875 C 90.109375 72.570312 52.316406 81.238281 43.621094 83.332031 Z M 262.53125 88.664062 C 267.136719 88.007812 271.621094 87.378906 275.976562 86.785156 L 273.707031 63.84375 C 273.597656 62.757812 272.628906 61.964844 271.542969 62.070312 L 261.984375 63.019531 C 260.894531 63.125 260.097656 64.097656 260.207031 65.179688 Z M 170.089844 106.777344 C 175.46875 105.835938 182.4375 104.675781 189.941406 103.449219 L 148.46875 107.554688 C 156.117188 108.058594 163.589844 107.921875 170.089844 106.777344 Z M 104.816406 87.554688 L 108.90625 87.148438 C 108.90625 87.148438 122.582031 104.75 133.570312 103.660156 C 144.558594 102.574219 184.617188 96.589844 184.617188 96.589844 C 184.617188 96.589844 167.316406 101.609375 148.449219 105.070312 C 165.109375 103.417969 184.898438 101.457031 195.886719 100.371094 C 216.421875 98.335938 217.933594 97.875 217.566406 94.183594 C 217.386719 92.378906 213 92.148438 206.363281 92.804688 C 199.722656 93.464844 145.039062 101.679688 134.386719 102.734375 C 123.734375 103.789062 109.542969 86.390625 109.542969 86.390625 L 103.671875 86.972656 C 103.671875 86.972656 114.359375 105.828125 119.097656 107.742188 C 116.804688 105.519531 111.058594 99.320312 104.816406 87.554688 Z M 71.722656 89.339844 L 71.941406 91.554688 C 72.886719 91.53125 74.328125 91.480469 76.070312 91.398438 L 75.28125 83.441406 L 76.761719 83.121094 L 77.574219 91.324219 C 79.613281 91.214844 81.933594 91.058594 84.285156 90.839844 L 83.421875 82.132812 L 84.910156 81.882812 L 85.785156 90.714844 C 90.253906 90.371094 96.722656 90.925781 103.269531 91.195312 C 103.167969 91.019531 103.066406 90.855469 102.972656 90.691406 C 101.941406 90.636719 100.910156 90.585938 99.882812 90.515625 C 98.375 90.386719 96.867188 90.285156 95.367188 90.136719 C 92.351562 89.871094 89.371094 89.554688 86.332031 89.445312 C 89.324219 88.820312 92.402344 88.753906 95.429688 88.757812 C 96.949219 88.746094 98.460938 88.816406 99.972656 88.84375 L 101.929688 88.917969 C 101.683594 88.5 101.535156 88.238281 101.511719 88.191406 L 99.640625 84.886719 L 110.621094 83.796875 L 111.464844 84.828125 C 112.375 85.945312 113.742188 87.484375 115.402344 89.164062 C 117.75 89.074219 120.085938 88.839844 122.394531 88.191406 C 120.566406 89.226562 118.519531 89.824219 116.4375 90.195312 C 116.65625 90.402344 116.871094 90.617188 117.09375 90.828125 C 119.871094 90.398438 121.8125 89.710938 123.164062 88.984375 L 121.855469 75.773438 L 122.882812 76.238281 L 124.089844 88.429688 C 124.792969 87.953125 125.261719 87.488281 125.578125 87.101562 L 124.566406 76.890625 C 124.566406 76.890625 122.894531 73.785156 112.210938 74.84375 C 101.527344 75.902344 88.664062 81.125 81.628906 81.824219 C 74.597656 82.519531 71.207031 84.148438 71.207031 84.148438 Z M 109.226562 100.507812 C 108.886719 100.019531 108.535156 99.507812 108.175781 98.964844 C 107.882812 98.527344 107.59375 98.089844 107.308594 97.65625 C 104.46875 97.617188 101.589844 97.441406 98.800781 97.242188 C 100.65625 97.777344 102.375 98.320312 103.941406 98.851562 C 105.515625 99.386719 107.296875 99.945312 109.226562 100.507812 Z M 220.035156 93.9375 C 220.253906 96.136719 219.71875 97.707031 218.304688 98.828125 C 230.097656 96.902344 239.789062 95.277344 242.722656 94.605469 C 247.113281 93.601562 249.292969 92.207031 250.304688 91.3125 C 241.96875 90.296875 230.660156 89.648438 216.53125 90.457031 C 219.160156 91.183594 219.914062 92.6875 220.035156 93.9375 Z M 91.957031 63.621094 C 93.265625 65.988281 94.347656 70.238281 94.347656 70.238281 C 94.347656 70.238281 90.410156 65.601562 85.871094 61.195312 C 77.546875 53.765625 58.003906 30.300781 52.414062 30.855469 C 45.824219 31.507812 3.347656 36.519531 3.546875 38.511719 C 3.644531 39.523438 3.855469 40.003906 6.5625 40.535156 L 16.359375 38.117188 C 16.449219 38.09375 25.730469 35.824219 39.15625 34.496094 C 40.449219 34.367188 41.753906 34.25 43.039062 34.144531 C 48.789062 33.6875 51.742188 33.847656 51.957031 36.007812 C 52.027344 36.71875 51.707031 37.222656 51.210938 37.589844 C 50.320312 38.882812 48.730469 40.671875 46.8125 42.65625 C 54.796875 42.179688 61.34375 41.53125 61.34375 41.53125 C 61.34375 41.53125 56.875 43.445312 44.957031 44.539062 C 43.082031 46.410156 41.035156 48.363281 39.078125 50.191406 L 54.269531 78.457031 C 65.550781 76.027344 83.070312 72.601562 104.71875 69.484375 L 104.015625 66.742188 C 103.601562 65.140625 102.175781 64 100.511719 63.953125 C 98.144531 63.886719 94.710938 63.777344 91.957031 63.621094 Z M 50.53125 36.152344 C 50.449219 35.324219 47.679688 35.207031 43.148438 35.570312 C 41.832031 35.675781 40.546875 35.789062 39.296875 35.914062 C 25.8125 37.25 16.703125 39.503906 16.703125 39.503906 C 16.703125 39.503906 31.835938 39.007812 41.859375 38.015625 C 46.871094 37.519531 50.605469 36.898438 50.53125 36.152344 Z M 43.707031 80.84375 C 45.765625 80.351562 48.703125 79.671875 52.433594 78.855469 L 37.710938 51.464844 C 34.980469 53.988281 32.59375 56.128906 31.332031 57.242188 L 43.707031 80.84375 " fill-opacity="1" fill-rule="nonzero"/></g></g></g></g><g clip-path="url(#140addeeff)"><g clip-path="url(#6ec7dc3c4b)"><g clip-path="url(#db87926a51)"><g clip-path="url(#33fe8a6a09)"><path fill="#ffffff" d="M 261.984375 63.019531 L 271.542969 62.070312 C 272.628906 61.964844 273.597656 62.757812 273.707031 63.84375 L 275.976562 86.785156 C 271.621094 87.378906 267.136719 88.007812 262.539062 88.683594 C 262.53125 88.664062 260.207031 65.179688 260.207031 65.179688 C 260.097656 64.097656 260.894531 63.125 261.984375 63.019531 " fill-opacity="1" fill-rule="nonzero"/></g></g></g></g><g clip-path="url(#4d8dc0b2cf)"><g clip-path="url(#ccfc9ced24)"><g clip-path="url(#b740c0de2e)"><g clip-path="url(#924aad54b0)"><path fill="#67adf5" d="M 242.722656 94.605469 C 239.789062 95.277344 230.097656 96.902344 218.304688 98.828125 C 219.71875 97.707031 220.253906 96.136719 220.035156 93.9375 C 219.914062 92.6875 219.160156 91.183594 216.53125 90.457031 C 230.660156 89.648438 241.96875 90.296875 250.304688 91.3125 C 249.292969 92.207031 247.113281 93.601562 242.722656 94.605469 " fill-opacity="1" fill-rule="nonzero"/></g></g></g></g><g clip-path="url(#89fbd0f182)"><g clip-path="url(#f2a57d294c)"><g clip-path="url(#7041f1b1fa)"><g clip-path="url(#eaa9303601)"><path fill="#ffffff" d="M 107.308594 97.65625 C 107.59375 98.089844 107.882812 98.527344 108.175781 98.964844 C 108.535156 99.507812 108.886719 100.019531 109.226562 100.507812 C 107.296875 99.945312 105.515625 99.386719 103.941406 98.851562 C 102.375 98.320312 100.65625 97.777344 98.800781 97.242188 C 101.589844 97.441406 104.46875 97.617188 107.308594 97.65625 " fill-opacity="1" fill-rule="nonzero"/></g></g></g></g><g clip-path="url(#46645097a8)"><g clip-path="url(#f669aee7fb)"><g clip-path="url(#04b2275f83)"><g clip-path="url(#3a0ae803aa)"><path fill="#67adf5" d="M 189.941406 103.449219 C 182.4375 104.675781 175.46875 105.835938 170.089844 106.777344 C 163.589844 107.921875 156.117188 108.058594 148.46875 107.554688 L 189.941406 103.449219 " fill-opacity="1" fill-rule="nonzero"/></g></g></g></g><g clip-path="url(#c105122d6d)"><g clip-path="url(#e9ae73e8ad)"><g clip-path="url(#bc30515ac1)"><g clip-path="url(#1242dcb229)"><path fill="#ffffff" d="M 139.390625 67.6875 C 195.726562 62.105469 259.460938 55.792969 276.039062 54.152344 C 284.472656 53.316406 292.136719 55.3125 298.390625 57.824219 L 293.789062 58.28125 L 300.703125 67.386719 L 316.320312 65.839844 C 317.003906 66.011719 317.722656 66.183594 318.488281 66.363281 C 322.433594 67.1875 326.386719 67.988281 330.289062 69.023438 C 332.238281 69.554688 334.175781 70.15625 336.058594 70.910156 C 337 71.292969 337.929688 71.71875 338.820312 72.226562 C 339.707031 72.738281 340.570312 73.320312 341.292969 74.101562 C 341.644531 74.492188 341.964844 74.933594 342.195312 75.429688 C 342.402344 75.9375 342.5625 76.476562 342.515625 77.050781 C 342.527344 77.191406 342.503906 77.332031 342.464844 77.46875 L 342.371094 77.882812 C 342.253906 78.136719 342.152344 78.402344 342.003906 78.632812 C 341.703125 79.09375 341.339844 79.492188 340.941406 79.84375 C 340.148438 80.550781 339.238281 81.054688 338.328125 81.523438 C 337.867188 81.75 337.40625 81.972656 336.933594 82.164062 C 336.460938 82.371094 335.988281 82.550781 335.507812 82.726562 C 331.683594 84.121094 327.730469 85.035156 323.773438 85.859375 C 315.839844 87.40625 307.835938 88.523438 299.824219 89.460938 C 295.816406 89.921875 291.804688 90.347656 287.789062 90.746094 C 283.769531 91.113281 279.757812 91.484375 275.734375 91.789062 L 287.746094 90.335938 C 291.746094 89.855469 295.75 89.355469 299.746094 88.820312 C 307.730469 87.75 315.722656 86.644531 323.609375 85.039062 C 327.542969 84.242188 331.480469 83.351562 335.246094 82.011719 C 337.101562 81.316406 338.984375 80.539062 340.460938 79.296875 C 341.171875 78.679688 341.789062 77.898438 341.8125 77.011719 C 341.863281 76.574219 341.738281 76.121094 341.578125 75.699219 C 341.394531 75.28125 341.125 74.890625 340.8125 74.53125 C 333.238281 79.933594 308.832031 82.347656 277.175781 86.625 L 274.90625 63.722656 C 274.734375 61.980469 273.167969 60.703125 271.421875 60.878906 L 261.863281 61.824219 C 260.117188 62 258.835938 63.554688 259.007812 65.296875 L 261.335938 88.78125 C 259.578125 89.117188 257.792969 89.390625 255.992188 89.667969 C 254.871094 89.484375 253.675781 89.308594 252.398438 89.136719 C 242.917969 87.859375 227.207031 86.773438 206.242188 88.847656 C 183.304688 91.121094 151.933594 95.804688 129.253906 99.40625 C 127.125 98.570312 124.910156 97.222656 122.777344 95.644531 C 126.578125 94.199219 127.492188 92.40625 127.710938 91.703125 C 127.78125 91.476562 127.804688 91.234375 127.78125 91 L 126.367188 76.710938 C 126.34375 76.472656 126.273438 76.242188 126.15625 76.035156 C 125.632812 75.058594 123.058594 71.960938 112.03125 73.054688 C 105.976562 73.652344 99.28125 75.542969 93.378906 77.210938 C 88.785156 78.507812 84.441406 79.734375 81.449219 80.027344 C 74.1875 80.75 70.574219 82.453125 70.421875 82.527344 C 69.742188 82.855469 69.335938 83.574219 69.410156 84.324219 L 70.136719 91.648438 C 61.570312 90.675781 52.234375 90.207031 42.558594 90.59375 L 42.582031 90.785156 C 42.632812 91.128906 42.644531 91.464844 42.753906 91.75 C 42.957031 92.339844 43.449219 92.808594 44.027344 92.988281 C 44.296875 93.070312 44.671875 93.125 44.996094 93.191406 L 46 93.390625 L 48.007812 93.78125 L 52.03125 94.546875 L 68.101562 97.664062 L 84.164062 100.828125 L 92.195312 102.417969 C 94.867188 102.976562 97.546875 103.488281 100.21875 104.058594 C 97.511719 103.710938 94.808594 103.300781 92.109375 102.90625 L 84.019531 101.597656 C 78.632812 100.703125 73.265625 99.699219 67.902344 98.667969 C 62.546875 97.605469 57.199219 96.511719 51.867188 95.316406 L 47.875 94.410156 L 45.878906 93.953125 L 44.882812 93.71875 C 44.542969 93.632812 44.234375 93.59375 43.859375 93.460938 C 43.144531 93.191406 42.589844 92.578125 42.382812 91.867188 C 42.277344 91.503906 42.285156 91.148438 42.253906 90.820312 L 42.183594 89.800781 C 42.082031 88.445312 41.996094 87.082031 41.914062 85.722656 C 41.804688 84.617188 42.535156 83.597656 43.621094 83.332031 C 52.316406 81.238281 90.109375 72.570312 139.390625 67.6875 Z M 283.722656 60.273438 L 286.054688 67.84375 C 286.214844 68.378906 286.792969 68.765625 287.335938 68.710938 L 298.59375 67.59375 L 291.679688 58.488281 L 284.417969 59.210938 C 283.871094 59.261719 283.558594 59.738281 283.722656 60.273438 Z M 248.585938 77.617188 C 250.226562 77.457031 251.390625 75.703125 251.195312 73.707031 C 250.996094 71.707031 249.507812 70.21875 247.867188 70.382812 C 246.230469 70.546875 245.0625 72.296875 245.257812 74.292969 C 245.457031 76.292969 246.945312 77.78125 248.585938 77.617188 Z M 236.402344 78.824219 C 238.042969 78.664062 239.210938 76.910156 239.011719 74.914062 C 238.816406 72.914062 237.324219 71.425781 235.6875 71.589844 C 234.050781 71.753906 232.878906 73.503906 233.078125 75.5 C 233.277344 77.5 234.765625 78.988281 236.402344 78.824219 Z M 224.222656 80.03125 C 225.859375 79.867188 227.03125 78.117188 226.832031 76.121094 C 226.632812 74.121094 225.144531 72.632812 223.507812 72.796875 C 221.867188 72.957031 220.699219 74.710938 220.898438 76.707031 C 221.09375 78.707031 222.585938 80.195312 224.222656 80.03125 Z M 212.039062 81.238281 C 213.679688 81.074219 214.847656 79.324219 214.652344 77.328125 C 214.453125 75.328125 212.960938 73.839844 211.324219 74.003906 C 209.683594 74.164062 208.515625 75.917969 208.714844 77.914062 C 208.910156 79.914062 210.398438 81.402344 212.039062 81.238281 Z M 199.859375 82.445312 C 201.496094 82.28125 202.664062 80.53125 202.46875 78.535156 C 202.269531 76.535156 200.78125 75.046875 199.140625 75.210938 C 197.5 75.371094 196.335938 77.125 196.53125 79.121094 C 196.730469 81.121094 198.21875 82.609375 199.859375 82.445312 Z M 187.679688 83.652344 C 189.316406 83.488281 190.484375 81.738281 190.285156 79.742188 C 190.089844 77.742188 188.597656 76.253906 186.960938 76.417969 C 185.324219 76.578125 184.148438 78.332031 184.347656 80.328125 C 184.546875 82.328125 186.039062 83.8125 187.679688 83.652344 Z M 175.496094 84.859375 C 177.132812 84.695312 178.300781 82.945312 178.105469 80.949219 C 177.90625 78.949219 176.417969 77.460938 174.777344 77.625 C 173.136719 77.785156 171.972656 79.539062 172.167969 81.535156 C 172.367188 83.53125 173.851562 85.023438 175.496094 84.859375 Z M 163.3125 86.066406 C 164.949219 85.902344 166.117188 84.152344 165.921875 82.15625 C 165.722656 80.15625 164.234375 78.667969 162.59375 78.832031 C 160.953125 78.992188 159.789062 80.746094 159.984375 82.742188 C 160.183594 84.738281 161.671875 86.226562 163.3125 86.066406 Z M 151.128906 87.273438 C 152.769531 87.109375 153.9375 85.359375 153.738281 83.359375 C 153.542969 81.363281 152.050781 79.875 150.414062 80.039062 C 148.777344 80.199219 147.605469 81.953125 147.804688 83.949219 C 148.003906 85.945312 149.492188 87.433594 151.128906 87.273438 Z M 138.949219 88.480469 C 140.585938 88.316406 141.757812 86.566406 141.558594 84.566406 C 141.359375 82.570312 139.871094 81.082031 138.230469 81.246094 C 136.589844 81.40625 135.421875 83.160156 135.621094 85.15625 C 135.816406 87.152344 137.308594 88.640625 138.949219 88.480469 Z M 140.417969 69.492188 L 159.453125 67.773438 C 172.140625 66.613281 184.824219 65.351562 197.507812 64.140625 C 210.1875 62.835938 222.863281 61.589844 235.539062 60.234375 L 254.542969 58.183594 C 260.875 57.457031 267.207031 56.769531 273.53125 56.007812 C 267.179688 56.5 260.835938 57.070312 254.484375 57.601562 L 235.445312 59.320312 C 222.753906 60.476562 210.078125 61.742188 197.390625 62.949219 C 184.714844 64.25 172.03125 65.503906 159.363281 66.855469 L 140.359375 68.90625 C 134.027344 69.632812 127.691406 70.320312 121.363281 71.082031 C 127.714844 70.589844 134.0625 70.019531 140.417969 69.492188 " fill-opacity="1" fill-rule="nonzero"/></g></g></g></g><g clip-path="url(#46096411c3)"><g clip-path="url(#92f6214e83)"><g clip-path="url(#62cefdc6ce)"><g clip-path="url(#e9a61016f3)"><path fill="#ffffff" d="M 112.210938 74.84375 C 122.894531 73.785156 124.566406 76.890625 124.566406 76.890625 L 125.578125 87.101562 C 125.261719 87.488281 124.792969 87.953125 124.089844 88.429688 L 122.882812 76.238281 L 121.855469 75.773438 L 123.164062 88.984375 C 121.8125 89.710938 119.871094 90.398438 117.09375 90.828125 C 116.871094 90.617188 116.65625 90.402344 116.4375 90.195312 C 118.519531 89.824219 120.566406 89.226562 122.394531 88.191406 C 120.085938 88.839844 117.75 89.074219 115.402344 89.164062 C 113.742188 87.484375 112.375 85.945312 111.464844 84.828125 L 110.621094 83.796875 L 99.640625 84.886719 L 101.511719 88.191406 C 101.535156 88.238281 101.683594 88.5 101.929688 88.917969 L 99.972656 88.84375 C 98.460938 88.816406 96.949219 88.746094 95.429688 88.757812 C 92.402344 88.753906 89.324219 88.820312 86.332031 89.445312 C 89.371094 89.554688 92.351562 89.871094 95.367188 90.136719 C 96.867188 90.285156 98.375 90.386719 99.882812 90.515625 C 100.910156 90.585938 101.941406 90.636719 102.972656 90.691406 C 103.066406 90.855469 103.167969 91.019531 103.269531 91.195312 C 96.722656 90.925781 90.253906 90.371094 85.785156 90.714844 L 84.910156 81.882812 L 83.421875 82.132812 L 84.285156 90.839844 C 81.933594 91.058594 79.613281 91.214844 77.574219 91.324219 L 76.761719 83.121094 L 75.28125 83.441406 L 76.070312 91.398438 C 74.328125 91.480469 72.886719 91.53125 71.941406 91.554688 L 71.207031 84.148438 C 71.207031 84.148438 74.597656 82.519531 81.628906 81.824219 C 88.664062 81.125 101.527344 75.902344 112.210938 74.84375 " fill-opacity="1" fill-rule="nonzero"/></g></g></g></g><g clip-path="url(#74005744c9)"><g clip-path="url(#8f69dd27a9)"><g clip-path="url(#2a63395d5c)"><g clip-path="url(#78e52c8bd6)"><path fill="#2d2d2d" d="M 284.417969 59.210938 L 291.679688 58.488281 L 298.59375 67.59375 L 287.335938 68.710938 C 286.792969 68.765625 286.214844 68.378906 286.054688 67.84375 L 283.722656 60.273438 C 283.558594 59.738281 283.871094 59.261719 284.417969 59.210938 " fill-opacity="1" fill-rule="nonzero"/></g></g></g></g><g clip-path="url(#3f1dfd26f8)"><g clip-path="url(#49c56bbb8c)"><g clip-path="url(#5b064976a3)"><g clip-path="url(#253f5bd55a)"><path fill="#ffffff" d="M 103.671875 86.972656 L 109.542969 86.390625 C 109.542969 86.390625 123.734375 103.789062 134.386719 102.734375 C 145.039062 101.679688 199.722656 93.464844 206.363281 92.804688 C 213 92.148438 217.386719 92.378906 217.566406 94.183594 C 217.933594 97.875 216.421875 98.335938 195.886719 100.371094 C 184.898438 101.457031 165.109375 103.417969 148.449219 105.070312 C 167.316406 101.609375 184.617188 96.589844 184.617188 96.589844 C 184.617188 96.589844 144.558594 102.574219 133.570312 103.660156 C 122.582031 104.75 108.90625 87.148438 108.90625 87.148438 L 104.816406 87.554688 C 111.058594 99.320312 116.804688 105.519531 119.097656 107.742188 C 114.359375 105.828125 103.671875 86.972656 103.671875 86.972656 " fill-opacity="1" fill-rule="nonzero"/></g></g></g></g><g clip-path="url(#31c5fc0647)"><g clip-path="url(#dd1238b53a)"><g clip-path="url(#fd865bc570)"><g clip-path="url(#65c44da6e1)"><path fill="#2d2d2d" d="M 247.867188 70.382812 C 249.507812 70.21875 250.996094 71.707031 251.195312 73.707031 C 251.390625 75.703125 250.226562 77.457031 248.585938 77.617188 C 246.945312 77.78125 245.457031 76.292969 245.257812 74.292969 C 245.0625 72.296875 246.230469 70.546875 247.867188 70.382812 " fill-opacity="1" fill-rule="nonzero"/></g></g></g></g><g clip-path="url(#8ebfcfa2c2)"><g clip-path="url(#8976ce9a8d)"><g clip-path="url(#de86a0c34d)"><g clip-path="url(#023507ed7e)"><path fill="#2d2d2d" d="M 235.6875 71.589844 C 237.324219 71.425781 238.816406 72.914062 239.011719 74.914062 C 239.210938 76.910156 238.042969 78.664062 236.402344 78.824219 C 234.765625 78.988281 233.277344 77.5 233.078125 75.5 C 232.878906 73.503906 234.050781 71.753906 235.6875 71.589844 " fill-opacity="1" fill-rule="nonzero"/></g></g></g></g><g clip-path="url(#e0b1733c93)"><g clip-path="url(#4c0f11696e)"><g clip-path="url(#aeb3f58fcc)"><g clip-path="url(#1b1d8ec5d6)"><path fill="#2d2d2d" d="M 223.507812 72.796875 C 225.144531 72.632812 226.632812 74.121094 226.832031 76.121094 C 227.03125 78.117188 225.859375 79.867188 224.222656 80.03125 C 222.585938 80.195312 221.09375 78.707031 220.898438 76.707031 C 220.699219 74.710938 221.867188 72.957031 223.507812 72.796875 " fill-opacity="1" fill-rule="nonzero"/></g></g></g></g><g clip-path="url(#390a1c5ad9)"><g clip-path="url(#e78d140f1e)"><g clip-path="url(#b2174aa845)"><g clip-path="url(#3dc353a908)"><path fill="#2d2d2d" d="M 211.324219 74.003906 C 212.960938 73.839844 214.453125 75.328125 214.652344 77.328125 C 214.847656 79.324219 213.679688 81.074219 212.039062 81.238281 C 210.398438 81.402344 208.910156 79.914062 208.714844 77.914062 C 208.515625 75.917969 209.683594 74.164062 211.324219 74.003906 " fill-opacity="1" fill-rule="nonzero"/></g></g></g></g><g clip-path="url(#64a6f7f5e2)"><g clip-path="url(#dafd64fee1)"><g clip-path="url(#f97e013964)"><g clip-path="url(#4633d3d047)"><path fill="#2d2d2d" d="M 199.140625 75.210938 C 200.78125 75.046875 202.269531 76.535156 202.46875 78.535156 C 202.664062 80.53125 201.496094 82.28125 199.859375 82.445312 C 198.21875 82.609375 196.730469 81.121094 196.53125 79.121094 C 196.335938 77.125 197.5 75.371094 199.140625 75.210938 " fill-opacity="1" fill-rule="nonzero"/></g></g></g></g><g clip-path="url(#52b5b393be)"><g clip-path="url(#f7818cbce9)"><g clip-path="url(#8779f104c0)"><g clip-path="url(#f9833d42c6)"><path fill="#2d2d2d" d="M 186.960938 76.417969 C 188.597656 76.253906 190.089844 77.742188 190.285156 79.742188 C 190.484375 81.738281 189.316406 83.488281 187.679688 83.652344 C 186.039062 83.8125 184.546875 82.328125 184.347656 80.328125 C 184.148438 78.332031 185.324219 76.578125 186.960938 76.417969 " fill-opacity="1" fill-rule="nonzero"/></g></g></g></g><g clip-path="url(#7dfe158b78)"><g clip-path="url(#37a0b090d1)"><g clip-path="url(#4756ed4672)"><g clip-path="url(#cc0610a467)"><path fill="#2d2d2d" d="M 174.777344 77.625 C 176.417969 77.460938 177.90625 78.949219 178.105469 80.949219 C 178.300781 82.945312 177.132812 84.695312 175.496094 84.859375 C 173.851562 85.023438 172.367188 83.53125 172.167969 81.535156 C 171.972656 79.539062 173.136719 77.785156 174.777344 77.625 " fill-opacity="1" fill-rule="nonzero"/></g></g></g></g><g clip-path="url(#d95610ffd2)"><g clip-path="url(#d1891142bb)"><g clip-path="url(#234ea5507d)"><g clip-path="url(#3b9eaf976e)"><path fill="#2d2d2d" d="M 162.59375 78.832031 C 164.234375 78.667969 165.722656 80.15625 165.921875 82.15625 C 166.117188 84.152344 164.949219 85.902344 163.3125 86.066406 C 161.671875 86.226562 160.183594 84.738281 159.984375 82.742188 C 159.789062 80.746094 160.953125 78.992188 162.59375 78.832031 " fill-opacity="1" fill-rule="nonzero"/></g></g></g></g><g clip-path="url(#96c1bba295)"><g clip-path="url(#90aade704f)"><g clip-path="url(#8f8e1010da)"><g clip-path="url(#7622575c63)"><path fill="#2d2d2d" d="M 150.414062 80.039062 C 152.050781 79.875 153.542969 81.363281 153.738281 83.359375 C 153.9375 85.359375 152.769531 87.109375 151.128906 87.273438 C 149.492188 87.433594 148.003906 85.945312 147.804688 83.949219 C 147.605469 81.953125 148.777344 80.199219 150.414062 80.039062 " fill-opacity="1" fill-rule="nonzero"/></g></g></g></g><g clip-path="url(#af3cee7b5b)"><g clip-path="url(#28a8b99a7d)"><g clip-path="url(#7bc370a0ed)"><g clip-path="url(#37495448ee)"><path fill="#2d2d2d" d="M 138.230469 81.246094 C 139.871094 81.082031 141.359375 82.570312 141.558594 84.566406 C 141.757812 86.566406 140.585938 88.316406 138.949219 88.480469 C 137.308594 88.640625 135.816406 87.152344 135.621094 85.15625 C 135.421875 83.160156 136.589844 81.40625 138.230469 81.246094 " fill-opacity="1" fill-rule="nonzero"/></g></g></g></g><g clip-path="url(#9c2764283a)"><g clip-path="url(#ca26d9a03f)"><g clip-path="url(#29c4aef2f6)"><g clip-path="url(#849c6d8e03)"><path fill="#2d2d2d" d="M 159.363281 66.855469 C 172.03125 65.503906 184.714844 64.25 197.390625 62.949219 C 210.078125 61.742188 222.753906 60.476562 235.445312 59.320312 L 254.484375 57.601562 C 260.835938 57.070312 267.179688 56.5 273.53125 56.007812 C 267.207031 56.769531 260.875 57.457031 254.542969 58.183594 L 235.539062 60.234375 C 222.863281 61.589844 210.1875 62.835938 197.507812 64.140625 C 184.824219 65.351562 172.140625 66.613281 159.453125 67.773438 L 140.417969 69.492188 C 134.0625 70.019531 127.714844 70.589844 121.363281 71.082031 C 127.691406 70.320312 134.027344 69.632812 140.359375 68.90625 L 159.363281 66.855469 " fill-opacity="1" fill-rule="nonzero"/></g></g></g></g><g clip-path="url(#d2913f09bf)"><g clip-path="url(#b553987d23)"><g clip-path="url(#5ed389cb35)"><g clip-path="url(#a3f1c7f59b)"><path fill="#ffffff" d="M 16.703125 39.503906 C 16.703125 39.503906 25.8125 37.25 39.296875 35.914062 C 40.546875 35.789062 41.832031 35.675781 43.148438 35.570312 C 47.679688 35.207031 50.449219 35.324219 50.53125 36.152344 C 50.605469 36.898438 46.871094 37.519531 41.859375 38.015625 C 31.835938 39.007812 16.703125 39.503906 16.703125 39.503906 " fill-opacity="1" fill-rule="nonzero"/></g></g></g></g></g></g></g></g><g clip-path="url(#f3427ee7f0)"><path fill="#000000" d="M 232.894531 148.699219 L 172.050781 146.621094 L 232.894531 144.542969 C 232.925781 144.460938 232.964844 144.378906 233 144.296875 L 217.773438 125.925781 L 235.433594 141.765625 C 235.511719 141.726562 235.589844 141.691406 235.671875 141.65625 L 237.667969 78.367188 L 239.667969 141.65625 C 239.746094 141.691406 239.824219 141.726562 239.902344 141.765625 L 257.5625 125.925781 L 242.335938 144.296875 C 242.375 144.378906 242.410156 144.460938 242.441406 144.542969 L 303.285156 146.621094 L 242.441406 148.699219 C 242.410156 148.78125 242.375 148.863281 242.335938 148.945312 L 257.5625 167.316406 L 239.902344 151.476562 C 239.824219 151.515625 239.746094 151.550781 239.667969 151.585938 L 237.667969 214.875 L 235.671875 151.585938 C 235.589844 151.550781 235.511719 151.515625 235.433594 151.476562 L 217.773438 167.316406 L 233 148.945312 C 232.964844 148.863281 232.925781 148.78125 232.894531 148.699219 Z M 232.894531 148.699219 " fill-opacity="1" fill-rule="evenodd"/></g><path fill="#000000" d="M 72.21875 289.089844 L 175.203125 289.089844 L 175.203125 290.332031 L 72.21875 290.332031 Z M 72.21875 289.089844 " fill-opacity="1" fill-rule="nonzero"/><path fill="#000000" d="M 199.992188 288.472656 L 302.976562 288.472656 L 302.976562 289.710938 L 199.992188 289.710938 Z M 199.992188 288.472656 " fill-opacity="1" fill-rule="nonzero"/><g clip-path="url(#262287d98f)"><path fill="#000000" d="M 186.972656 281.585938 C 186.351562 287.96875 185.847656 288.472656 179.441406 289.089844 C 185.847656 289.710938 186.351562 290.210938 186.972656 296.59375 C 187.597656 290.210938 188.101562 289.710938 194.507812 289.089844 C 188.101562 288.472656 187.597656 287.96875 186.972656 281.585938 Z M 186.972656 294.5 C 186.527344 289.898438 186.164062 289.539062 181.546875 289.089844 C 186.164062 288.644531 186.527344 288.28125 186.972656 283.683594 C 187.421875 288.28125 187.785156 288.644531 192.402344 289.089844 C 187.785156 289.539062 187.421875 289.898438 186.972656 294.5 Z M 186.972656 294.5 " fill-opacity="1" fill-rule="nonzero"/></g><g transform="matrix(1, 0, 0, 1, 55, 207)"><g clip-path="url(#67f98d7c69)"><g fill="#000000" fill-opacity="1"><g transform="translate(0.514584, 59.857789)"><g><path d="M 2.0625 0 L 2.0625 -8.3125 L 7.8125 -8.3125 C 10.1875 -8.3125 11.847656 -8.878906 12.796875 -10.015625 C 13.742188 -11.148438 14.21875 -12.796875 14.21875 -14.953125 L 14.21875 -39.046875 L 23.15625 -39.046875 L 23.15625 -14.28125 C 23.15625 -9.78125 21.90625 -6.273438 19.40625 -3.765625 C 16.914062 -1.253906 13.238281 0 8.375 0 Z M 2.0625 0 "/></g></g></g><g fill="#000000" fill-opacity="1"><g transform="translate(27.786178, 59.857789)"><g><path d="M 18.078125 0.78125 C 14.953125 0.78125 12.1875 0.128906 9.78125 -1.171875 C 7.382812 -2.472656 5.515625 -4.285156 4.171875 -6.609375 C 2.835938 -8.929688 2.171875 -11.617188 2.171875 -14.671875 C 2.171875 -17.722656 2.847656 -20.398438 4.203125 -22.703125 C 5.566406 -25.003906 7.445312 -26.804688 9.84375 -28.109375 C 12.238281 -29.410156 15.019531 -30.0625 18.1875 -30.0625 C 21.53125 -30.0625 24.421875 -29.316406 26.859375 -27.828125 C 29.296875 -26.347656 31.15625 -24.269531 32.4375 -21.59375 C 33.71875 -18.914062 34.265625 -15.789062 34.078125 -12.21875 L 10.59375 -12.21875 C 11.007812 -10.207031 11.90625 -8.671875 13.28125 -7.609375 C 14.65625 -6.554688 16.304688 -6.03125 18.234375 -6.03125 C 19.648438 -6.03125 20.941406 -6.296875 22.109375 -6.828125 C 23.285156 -7.367188 24.226562 -8.125 24.9375 -9.09375 L 33.53125 -9.09375 C 32.257812 -6.007812 30.265625 -3.59375 27.546875 -1.84375 C 24.835938 -0.09375 21.679688 0.78125 18.078125 0.78125 Z M 10.65625 -17.578125 L 25.875 -17.578125 C 25.394531 -19.359375 24.492188 -20.757812 23.171875 -21.78125 C 21.859375 -22.800781 20.210938 -23.3125 18.234375 -23.3125 C 16.378906 -23.3125 14.769531 -22.800781 13.40625 -21.78125 C 12.050781 -20.757812 11.132812 -19.359375 10.65625 -17.578125 Z M 10.65625 -17.578125 "/></g></g></g><g fill="#000000" fill-opacity="1"><g transform="translate(63.144366, 59.857789)"><g><path d="M 18.359375 0 C 14.640625 0 11.785156 -0.957031 9.796875 -2.875 C 7.804688 -4.789062 6.8125 -7.53125 6.8125 -11.09375 L 6.8125 -22.375 L 1.109375 -22.375 L 1.109375 -29.28125 L 3.734375 -29.28125 C 5.335938 -29.28125 6.425781 -29.539062 7 -30.0625 C 7.570312 -30.582031 7.972656 -31.585938 8.203125 -33.078125 L 8.703125 -36.875 L 15.28125 -36.875 L 15.28125 -29.28125 L 23.3125 -29.28125 L 23.3125 -22.375 L 15.28125 -22.375 L 15.28125 -12.390625 C 15.28125 -9.035156 16.914062 -7.359375 20.1875 -7.359375 L 23.703125 -7.359375 L 23.703125 0 Z M 18.359375 0 "/></g></g></g><g fill="#000000" fill-opacity="1"><g transform="translate(89.189103, 59.857789)"><g><path d="M 4.6875 0 L 4.6875 -39.046875 L 19.96875 -39.046875 C 23.132812 -39.046875 25.867188 -38.46875 28.171875 -37.3125 C 30.472656 -36.164062 32.265625 -34.53125 33.546875 -32.40625 C 34.835938 -30.289062 35.484375 -27.800781 35.484375 -24.9375 C 35.484375 -22.101562 34.835938 -19.625 33.546875 -17.5 C 32.265625 -15.382812 30.472656 -13.75 28.171875 -12.59375 C 25.867188 -11.445312 23.132812 -10.875 19.96875 -10.875 L 13.5625 -10.875 L 13.5625 0 Z M 13.5 -18.515625 L 19.25 -18.515625 C 21.550781 -18.515625 23.320312 -19.0625 24.5625 -20.15625 C 25.8125 -21.257812 26.4375 -22.832031 26.4375 -24.875 C 26.4375 -26.925781 25.8125 -28.507812 24.5625 -29.625 C 23.320312 -30.738281 21.550781 -31.296875 19.25 -31.296875 L 13.5 -31.296875 Z M 13.5 -18.515625 "/></g></g></g><g fill="#000000" fill-opacity="1"><g transform="translate(125.718534, 59.857789)"><g><path d="M 18.625 0.78125 C 15.394531 0.78125 12.539062 0.128906 10.0625 -1.171875 C 7.59375 -2.472656 5.660156 -4.285156 4.265625 -6.609375 C 2.867188 -8.929688 2.171875 -11.617188 2.171875 -14.671875 C 2.171875 -17.722656 2.867188 -20.398438 4.265625 -22.703125 C 5.660156 -25.003906 7.59375 -26.804688 10.0625 -28.109375 C 12.539062 -29.410156 15.394531 -30.0625 18.625 -30.0625 C 21.863281 -30.0625 24.71875 -29.410156 27.1875 -28.109375 C 29.664062 -26.804688 31.59375 -25.003906 32.96875 -22.703125 C 34.34375 -20.398438 35.03125 -17.722656 35.03125 -14.671875 C 35.03125 -11.617188 34.34375 -8.929688 32.96875 -6.609375 C 31.59375 -4.285156 29.664062 -2.472656 27.1875 -1.171875 C 24.71875 0.128906 21.863281 0.78125 18.625 0.78125 Z M 10.546875 -14.671875 C 10.546875 -12.285156 11.296875 -10.332031 12.796875 -8.8125 C 14.304688 -7.289062 16.25 -6.53125 18.625 -6.53125 C 21.007812 -6.53125 22.941406 -7.289062 24.421875 -8.8125 C 25.910156 -10.332031 26.65625 -12.285156 26.65625 -14.671875 C 26.65625 -17.085938 25.910156 -19.046875 24.421875 -20.546875 C 22.941406 -22.054688 21.007812 -22.8125 18.625 -22.8125 C 16.25 -22.8125 14.304688 -22.054688 12.796875 -20.546875 C 11.296875 -19.046875 10.546875 -17.085938 10.546875 -14.671875 Z M 10.546875 -14.671875 "/></g></g></g><g fill="#000000" fill-opacity="1"><g transform="translate(162.917333, 59.857789)"><g><path d="M 4.234375 0 L 4.234375 -41.28125 L 12.71875 -41.28125 L 12.71875 0 Z M 4.234375 0 "/></g></g></g><g fill="#000000" fill-opacity="1"><g transform="translate(179.871515, 59.857789)"><g><path d="M 4.234375 0 L 4.234375 -29.28125 L 12.71875 -29.28125 L 12.71875 0 Z M 3.015625 -38.765625 C 3.015625 -40.328125 3.523438 -41.597656 4.546875 -42.578125 C 5.566406 -43.566406 6.878906 -44.0625 8.484375 -44.0625 C 10.117188 -44.0625 11.4375 -43.566406 12.4375 -42.578125 C 13.445312 -41.597656 13.953125 -40.328125 13.953125 -38.765625 C 13.953125 -37.203125 13.445312 -35.925781 12.4375 -34.9375 C 11.4375 -33.957031 10.117188 -33.46875 8.484375 -33.46875 C 6.878906 -33.46875 5.566406 -33.957031 4.546875 -34.9375 C 3.523438 -35.925781 3.015625 -37.203125 3.015625 -38.765625 Z M 3.015625 -38.765625 "/></g></g></g><g fill="#000000" fill-opacity="1"><g transform="translate(196.825697, 59.857789)"><g><path d="M 15.5 0.78125 C 12.820312 0.78125 10.488281 0.351562 8.5 -0.5 C 6.507812 -1.351562 4.96875 -2.539062 3.875 -4.0625 C 2.78125 -5.59375 2.234375 -7.378906 2.234375 -9.421875 L 10.546875 -9.421875 C 10.578125 -8.234375 11.039062 -7.285156 11.9375 -6.578125 C 12.832031 -5.867188 14.0625 -5.515625 15.625 -5.515625 C 16.957031 -5.515625 17.992188 -5.765625 18.734375 -6.265625 C 19.484375 -6.773438 19.859375 -7.457031 19.859375 -8.3125 C 19.859375 -9.238281 19.351562 -10.007812 18.34375 -10.625 C 17.34375 -11.238281 15.707031 -11.734375 13.4375 -12.109375 C 9.71875 -12.773438 6.984375 -13.851562 5.234375 -15.34375 C 3.492188 -16.832031 2.625 -18.785156 2.625 -21.203125 C 2.625 -24.054688 3.691406 -26.242188 5.828125 -27.765625 C 7.960938 -29.296875 11.003906 -30.0625 14.953125 -30.0625 C 18.859375 -30.0625 21.914062 -29.222656 24.125 -27.546875 C 26.332031 -25.878906 27.53125 -23.503906 27.71875 -20.421875 L 19.640625 -20.421875 C 19.566406 -21.535156 19.109375 -22.398438 18.265625 -23.015625 C 17.429688 -23.628906 16.304688 -23.9375 14.890625 -23.9375 C 13.628906 -23.9375 12.632812 -23.691406 11.90625 -23.203125 C 11.1875 -22.722656 10.828125 -22.054688 10.828125 -21.203125 C 10.828125 -20.304688 11.300781 -19.609375 12.25 -19.109375 C 13.195312 -18.609375 14.914062 -18.097656 17.40625 -17.578125 C 24.613281 -16.117188 28.21875 -13.007812 28.21875 -8.25 C 28.21875 -5.46875 27.09375 -3.265625 24.84375 -1.640625 C 22.59375 -0.0234375 19.476562 0.78125 15.5 0.78125 Z M 15.5 0.78125 "/></g></g></g><g fill="#000000" fill-opacity="1"><g transform="translate(227.332071, 59.857789)"><g><path d="M 4.234375 0 L 4.234375 -41.28125 L 12.71875 -41.28125 L 12.71875 -27.046875 C 13.832031 -28.054688 15.132812 -28.8125 16.625 -29.3125 C 18.113281 -29.8125 19.675781 -30.0625 21.3125 -30.0625 C 25.101562 -30.0625 28.078125 -28.890625 30.234375 -26.546875 C 32.390625 -24.203125 33.46875 -20.988281 33.46875 -16.90625 L 33.46875 0 L 24.984375 0 L 24.984375 -16.0625 C 24.984375 -18.21875 24.472656 -19.878906 23.453125 -21.046875 C 22.429688 -22.222656 21.007812 -22.8125 19.1875 -22.8125 C 17.25 -22.8125 15.6875 -22.148438 14.5 -20.828125 C 13.3125 -19.515625 12.71875 -17.703125 12.71875 -15.390625 L 12.71875 0 Z M 4.234375 0 "/></g></g></g></g></g></svg>